<svg xmlns="http://www.w3.org/2000/svg" viewBox="0 0 1079.95 1906.21"><defs><style>.cls-1{fill:#ff7f00;}.cls-2{fill:none;stroke:#fff;stroke-linecap:round;stroke-linejoin:round;stroke-width:20px;}.cls-3{font-size:85.07px;}.cls-11,.cls-3{fill:#fff;}.cls-19,.cls-20,.cls-21,.cls-29,.cls-3,.cls-4{font-family:BerlinSansFBDemi-Bold, Berlin Sans FB Demi;font-weight:700;}.cls-4{font-size:70px;}.cls-5{opacity:0.1;}.cls-6{fill:#5f5f60;}.cls-6,.cls-8,.cls-9{stroke:#000;}.cls-10,.cls-6,.cls-7,.cls-8,.cls-9{stroke-miterlimit:10;}.cls-7{fill:#82cdd1;}.cls-10,.cls-7{stroke:#1d1d1b;}.cls-8{fill:#969696;}.cls-9{fill:#cecece;}.cls-10{fill:#d8d8d8;}.cls-12{fill:#39bdc9;}.cls-13{fill:#cdd3ce;}.cls-14{fill:#319ea3;}.cls-15{fill:#d32626;}.cls-16{fill:#ff9d00;}.cls-17{fill:#4fbc08;}.cls-18{opacity:0.25;}.cls-19,.cls-20,.cls-22,.cls-29{font-size:45px;}.cls-20{fill:#1ca500;}.cls-21{font-size:61.33px;}.cls-22{font-family:MyriadPro-Regular, Myriad Pro;}.cls-23{letter-spacing:-0.01em;}.cls-24{letter-spacing:-0.01em;}.cls-25{letter-spacing:0em;}.cls-26{letter-spacing:-0.01em;}.cls-27{letter-spacing:0.01em;}.cls-28{letter-spacing:-0.01em;}.cls-29{fill:red;}</style></defs><g id="Capa_2" data-name="Capa 2"><g id="Capa_1-2" data-name="Capa 1"><rect class="cls-1" width="1079.95" height="172"/><polyline class="cls-2" points="87.41 47.37 48.78 86 87.41 124.63"/><line class="cls-2" x1="150.22" y1="86" x2="48.78" y2="86"/><text class="cls-3" transform="translate(367.33 115.79)">NOTIFICACIONES</text><text class="cls-4" transform="translate(197.55 263.21)">Historial de peticiones</text><rect class="cls-5" x="48.77" y="315.21" width="961" height="499" rx="45.68"/><rect class="cls-6" x="131.39" y="459.5" width="215.01" height="138.18" rx="12.56"/><rect class="cls-7" x="145" y="470.34" width="187.8" height="116.51" rx="2.35"/><path class="cls-8" d="M370.19,661.75H107.61c-6.51,0-10.43-6.84-6.89-12l33.05-48.49a8.32,8.32,0,0,1,6.89-3.56H338.13a8.33,8.33,0,0,1,7,3.65l32.05,48.49C380.57,655,376.64,661.75,370.19,661.75Z"/><path class="cls-9" d="M378.27,653.15c-.64,5-3.8,9.23-8.08,9.23H107.61c-4.29,0-7.44-4.23-8.09-9.22-3.26,6.72,2,16.76,8.54,16.76H369.73C376.24,669.92,381.56,659.87,378.27,653.15Z"/><path class="cls-10" d="M170.63,629.09H129a1,1,0,0,1-1-1.42l5.81-10.6a1.11,1.11,0,0,1,1-.54h40.46a1,1,0,0,1,1,1.34l-4.66,10.6A1.08,1.08,0,0,1,170.63,629.09Z"/><path class="cls-10" d="M308,629.09h41.63a1,1,0,0,0,1-1.42l-5.81-10.6a1.11,1.11,0,0,0-1-.54H303.38a1,1,0,0,0-1,1.34l4.65,10.6A1.1,1.1,0,0,0,308,629.09Z"/><path class="cls-10" d="M163.64,615.27H137.58a.79.79,0,0,1-.6-1.14l3.64-8.47a.67.67,0,0,1,.6-.44h25.33a.78.78,0,0,1,.63,1.08l-2.91,8.48A.69.69,0,0,1,163.64,615.27Z"/><path class="cls-10" d="M192.59,615.27H166.53a.79.79,0,0,1-.61-1.14l3.64-8.47a.68.68,0,0,1,.61-.44H195.5a.78.78,0,0,1,.62,1.08l-2.91,8.48A.69.69,0,0,1,192.59,615.27Z"/><path class="cls-10" d="M202.23,627.83H176.17a.79.79,0,0,1-.6-1.14l3.64-8.47a.67.67,0,0,1,.6-.44h25.33a.78.78,0,0,1,.63,1.08l-2.91,8.48A.68.68,0,0,1,202.23,627.83Z"/><path class="cls-10" d="M202.23,629.09H176.17c-.5,0-.82-.77-.6-1.42l3.64-10.6a.7.7,0,0,1,.6-.54h25.33c.48,0,.81.7.63,1.34l-2.91,10.6C202.76,628.84,202.51,629.09,202.23,629.09Z"/><path class="cls-10" d="M149.21,645.42h-30.8c-.59,0-1-.92-.71-1.71L122,631a.83.83,0,0,1,.71-.66h29.94c.56,0,.95.85.74,1.62L150,644.68C149.83,645.13,149.53,645.42,149.21,645.42Z"/><path class="cls-10" d="M183.66,645.42H152.87c-.6,0-1-.92-.72-1.71l4.3-12.71a.86.86,0,0,1,.72-.66H187.1c.57,0,1,.85.74,1.62l-3.44,12.72C184.28,645.13,184,645.42,183.66,645.42Z"/><path class="cls-10" d="M328.59,645.42h30.79c.6,0,1-.92.72-1.71L355.8,631c-.14-.4-.41-.66-.72-.66H325.15c-.57,0-.95.85-.74,1.62l3.44,12.72C328,645.13,328.26,645.42,328.59,645.42Z"/><path class="cls-10" d="M294.13,645.42h30.8c.59,0,1-.92.71-1.71L321.34,631a.83.83,0,0,0-.71-.66H290.69c-.56,0-.95.85-.74,1.62l3.44,12.72C293.51,645.13,293.81,645.42,294.13,645.42Z"/><path class="cls-10" d="M236.69,629.09H207.87c-.5,0-.82-.77-.6-1.42l.88-10.6a.71.71,0,0,1,.61-.54h28.08c.48,0,.81.7.63,1.34l-.15,10.6C237.21,628.84,237,629.09,236.69,629.09Z"/><path class="cls-10" d="M240.1,629.09h28.82c.5,0,.82-.77.6-1.42l-.88-10.6a.71.71,0,0,0-.61-.54H239.94c-.47,0-.8.7-.62,1.34l.15,10.6C239.58,628.84,239.82,629.09,240.1,629.09Z"/><path class="cls-10" d="M274.18,629.09h26.06c.5,0,.83-.77.61-1.42l-3.64-10.6a.71.71,0,0,0-.61-.54H271.27c-.47,0-.8.7-.62,1.34l2.91,10.6C273.66,628.84,273.91,629.09,274.18,629.09Z"/><path class="cls-10" d="M221.53,615.27H195.47a.79.79,0,0,1-.6-1.14l3.63-8.47a.68.68,0,0,1,.61-.44h25.33a.79.79,0,0,1,.63,1.08l-2.91,8.48A.71.71,0,0,1,221.53,615.27Z"/><path class="cls-10" d="M314.15,615.27h26.06a.79.79,0,0,0,.61-1.14l-3.64-8.47a.68.68,0,0,0-.61-.44H311.24a.78.78,0,0,0-.62,1.08l2.91,8.48A.69.69,0,0,0,314.15,615.27Z"/><path class="cls-10" d="M285.21,615.27h26.06a.79.79,0,0,0,.6-1.14l-3.64-8.47a.66.66,0,0,0-.6-.44H282.3a.79.79,0,0,0-.63,1.08l2.91,8.48A.7.7,0,0,0,285.21,615.27Z"/><path class="cls-10" d="M256.27,615.27h26.06a.79.79,0,0,0,.6-1.14l-3.64-8.47a.67.67,0,0,0-.6-.44H253.36a.78.78,0,0,0-.63,1.08l2.91,8.48A.69.69,0,0,0,256.27,615.27Z"/><rect class="cls-10" x="226.49" y="605.22" width="24.81" height="10.05" rx="1.12"/><rect class="cls-10" x="189.28" y="630.34" width="99.23" height="15.07" rx="1.12"/><rect class="cls-8" x="112.79" y="665.93" width="39.97" height="1.26"/><rect class="cls-8" x="159.65" y="665.93" width="39.97" height="1.26"/><rect class="cls-11" x="165.85" y="491.97" width="143.34" height="75.37"/><rect class="cls-12" x="171.81" y="500.76" width="63.4" height="20.73"/><rect class="cls-13" x="239.83" y="500.76" width="63.4" height="3.01"/><rect class="cls-13" x="239.83" y="508.89" width="63.4" height="3.01"/><rect class="cls-13" x="239.83" y="517.02" width="63.4" height="3.01"/><rect class="cls-13" x="239.83" y="525.15" width="63.4" height="3.01"/><rect class="cls-13" x="239.83" y="533.28" width="63.4" height="3.01"/><rect class="cls-13" x="239.83" y="541.41" width="63.4" height="3.01"/><rect class="cls-13" x="239.83" y="549.54" width="63.4" height="3.01"/><rect class="cls-13" x="239.83" y="557.67" width="63.4" height="3.01"/><rect class="cls-13" x="171.81" y="525.15" width="63.4" height="3.01"/><rect class="cls-13" x="171.81" y="533.28" width="63.4" height="3.01"/><rect class="cls-13" x="171.81" y="541.41" width="63.4" height="3.01"/><rect class="cls-13" x="171.81" y="549.54" width="63.4" height="3.01"/><rect class="cls-13" x="171.81" y="557.67" width="63.4" height="3.01"/><rect class="cls-14" x="165.85" y="485.86" width="143.34" height="6.73"/><ellipse class="cls-15" cx="297.43" cy="489.23" rx="1.3" ry="1.19"/><ellipse class="cls-16" cx="301.05" cy="489.23" rx="1.3" ry="1.19"/><ellipse class="cls-17" cx="304.67" cy="489.23" rx="1.3" ry="1.19"/><path class="cls-18" d="M190.15,597.68H328.72c9.29,0,16.81-6.86,16.81-15.32V511.85Z"/><path class="cls-18" d="M131.39,544.33V473.7c0-5.07,6.15-14.2,15.44-14.2h78.73Z"/><text class="cls-19" transform="translate(131.78 375.12)">Jose Cuellar</text><text class="cls-20" transform="translate(435.06 701.09)">Aprobado</text><text class="cls-21" transform="translate(431.36 470.78)">Portatil</text><text class="cls-22" transform="translate(435.06 536.53)"><tspan class="cls-23">L</tspan><tspan x="20.61" y="0">o</tspan><tspan class="cls-24" x="45.31" y="0">r</tspan><tspan x="59.58" y="0">em ipsum dolor sit ame</tspan><tspan class="cls-25" x="499.23" y="0">t</tspan><tspan x="513.99" y="0">, </tspan><tspan class="cls-26" x="0" y="54">c</tspan><tspan x="19.89" y="54">onse</tspan><tspan class="cls-27" x="109.93" y="54">c</tspan><tspan class="cls-26" x="130.68" y="54">t</tspan><tspan x="145.3" y="54">etuer adipiscing eli</tspan><tspan class="cls-25" x="499.94" y="54">t</tspan><tspan x="514.7" y="54">, </tspan><tspan x="0" y="108">sed diam nonum</tspan><tspan class="cls-28" x="316.93" y="108">m</tspan><tspan x="353.88" y="108">y nibh eu</tspan><tspan x="527.58" y="108">-</tspan></text><rect class="cls-5" x="48.77" y="861.21" width="961" height="499" rx="45.68"/><rect class="cls-6" x="131.39" y="1005.5" width="215.01" height="138.18" rx="12.56"/><rect class="cls-7" x="145" y="1016.34" width="187.8" height="116.51" rx="2.35"/><path class="cls-8" d="M370.19,1207.75H107.61c-6.51,0-10.43-6.84-6.89-12l33.05-48.49a8.32,8.32,0,0,1,6.89-3.56H338.13a8.33,8.33,0,0,1,7,3.65l32.05,48.49C380.57,1201,376.64,1207.75,370.19,1207.75Z"/><path class="cls-9" d="M378.27,1199.15c-.64,5-3.8,9.23-8.08,9.23H107.61c-4.29,0-7.44-4.23-8.09-9.22-3.26,6.72,2,16.76,8.54,16.76H369.73C376.24,1215.92,381.56,1205.87,378.27,1199.15Z"/><path class="cls-10" d="M170.63,1175.09H129a1,1,0,0,1-1-1.42l5.81-10.6a1.11,1.11,0,0,1,1-.54h40.46a1,1,0,0,1,1,1.34l-4.66,10.6A1.08,1.08,0,0,1,170.63,1175.09Z"/><path class="cls-10" d="M308,1175.09h41.63a1,1,0,0,0,1-1.42l-5.81-10.6a1.11,1.11,0,0,0-1-.54H303.38a1,1,0,0,0-1,1.34l4.65,10.6A1.1,1.1,0,0,0,308,1175.09Z"/><path class="cls-10" d="M163.64,1161.27H137.58a.79.79,0,0,1-.6-1.14l3.64-8.47a.67.67,0,0,1,.6-.44h25.33a.78.78,0,0,1,.63,1.08l-2.91,8.48A.69.69,0,0,1,163.64,1161.27Z"/><path class="cls-10" d="M192.59,1161.27H166.53a.79.79,0,0,1-.61-1.14l3.64-8.47a.68.68,0,0,1,.61-.44H195.5a.78.78,0,0,1,.62,1.08l-2.91,8.48A.69.69,0,0,1,192.59,1161.27Z"/><path class="cls-10" d="M202.23,1173.83H176.17a.79.79,0,0,1-.6-1.14l3.64-8.47a.67.67,0,0,1,.6-.44h25.33a.78.78,0,0,1,.63,1.08l-2.91,8.48A.68.68,0,0,1,202.23,1173.83Z"/><path class="cls-10" d="M202.23,1175.09H176.17c-.5,0-.82-.77-.6-1.42l3.64-10.6a.7.7,0,0,1,.6-.54h25.33c.48,0,.81.7.63,1.34l-2.91,10.6C202.76,1174.84,202.51,1175.09,202.23,1175.09Z"/><path class="cls-10" d="M149.21,1191.42h-30.8c-.59,0-1-.92-.71-1.71L122,1177a.83.83,0,0,1,.71-.66h29.94c.56,0,.95.85.74,1.62L150,1190.68C149.83,1191.13,149.53,1191.42,149.21,1191.42Z"/><path class="cls-10" d="M183.66,1191.42H152.87c-.6,0-1-.92-.72-1.71l4.3-12.71a.86.86,0,0,1,.72-.66H187.1c.57,0,1,.85.74,1.62l-3.44,12.72C184.28,1191.13,184,1191.42,183.66,1191.42Z"/><path class="cls-10" d="M328.59,1191.42h30.79c.6,0,1-.92.72-1.71L355.8,1177c-.14-.4-.41-.66-.72-.66H325.15c-.57,0-.95.85-.74,1.62l3.44,12.72C328,1191.13,328.26,1191.42,328.59,1191.42Z"/><path class="cls-10" d="M294.13,1191.42h30.8c.59,0,1-.92.71-1.71l-4.3-12.71a.83.83,0,0,0-.71-.66H290.69c-.56,0-.95.85-.74,1.62l3.44,12.72C293.51,1191.13,293.81,1191.42,294.13,1191.42Z"/><path class="cls-10" d="M236.69,1175.09H207.87c-.5,0-.82-.77-.6-1.42l.88-10.6a.71.71,0,0,1,.61-.54h28.08c.48,0,.81.7.63,1.34l-.15,10.6C237.21,1174.84,237,1175.09,236.69,1175.09Z"/><path class="cls-10" d="M240.1,1175.09h28.82c.5,0,.82-.77.6-1.42l-.88-10.6a.71.71,0,0,0-.61-.54H239.94c-.47,0-.8.7-.62,1.34l.15,10.6C239.58,1174.84,239.82,1175.09,240.1,1175.09Z"/><path class="cls-10" d="M274.18,1175.09h26.06c.5,0,.83-.77.61-1.42l-3.64-10.6a.71.71,0,0,0-.61-.54H271.27c-.47,0-.8.7-.62,1.34l2.91,10.6C273.66,1174.84,273.91,1175.09,274.18,1175.09Z"/><path class="cls-10" d="M221.53,1161.27H195.47a.79.79,0,0,1-.6-1.14l3.63-8.47a.68.68,0,0,1,.61-.44h25.33a.79.79,0,0,1,.63,1.08l-2.91,8.48A.71.71,0,0,1,221.53,1161.27Z"/><path class="cls-10" d="M314.15,1161.27h26.06a.79.79,0,0,0,.61-1.14l-3.64-8.47a.68.68,0,0,0-.61-.44H311.24a.78.78,0,0,0-.62,1.08l2.91,8.48A.69.69,0,0,0,314.15,1161.27Z"/><path class="cls-10" d="M285.21,1161.27h26.06a.79.79,0,0,0,.6-1.14l-3.64-8.47a.66.66,0,0,0-.6-.44H282.3a.79.79,0,0,0-.63,1.08l2.91,8.48A.7.7,0,0,0,285.21,1161.27Z"/><path class="cls-10" d="M256.27,1161.27h26.06a.79.79,0,0,0,.6-1.14l-3.64-8.47a.67.67,0,0,0-.6-.44H253.36a.78.78,0,0,0-.63,1.08l2.91,8.48A.69.69,0,0,0,256.27,1161.27Z"/><rect class="cls-10" x="226.49" y="1151.22" width="24.81" height="10.05" rx="1.12"/><rect class="cls-10" x="189.28" y="1176.34" width="99.23" height="15.07" rx="1.12"/><rect class="cls-8" x="112.79" y="1211.93" width="39.97" height="1.26"/><rect class="cls-8" x="159.65" y="1211.93" width="39.97" height="1.26"/><rect class="cls-11" x="165.85" y="1037.97" width="143.34" height="75.37"/><rect class="cls-12" x="171.81" y="1046.76" width="63.4" height="20.73"/><rect class="cls-13" x="239.83" y="1046.76" width="63.4" height="3.01"/><rect class="cls-13" x="239.83" y="1054.89" width="63.4" height="3.01"/><rect class="cls-13" x="239.83" y="1063.02" width="63.4" height="3.01"/><rect class="cls-13" x="239.83" y="1071.15" width="63.4" height="3.01"/><rect class="cls-13" x="239.83" y="1079.28" width="63.4" height="3.01"/><rect class="cls-13" x="239.83" y="1087.41" width="63.4" height="3.01"/><rect class="cls-13" x="239.83" y="1095.54" width="63.4" height="3.01"/><rect class="cls-13" x="239.83" y="1103.67" width="63.4" height="3.01"/><rect class="cls-13" x="171.81" y="1071.15" width="63.4" height="3.01"/><rect class="cls-13" x="171.81" y="1079.28" width="63.4" height="3.01"/><rect class="cls-13" x="171.81" y="1087.41" width="63.4" height="3.01"/><rect class="cls-13" x="171.81" y="1095.54" width="63.4" height="3.01"/><rect class="cls-13" x="171.81" y="1103.67" width="63.4" height="3.01"/><rect class="cls-14" x="165.85" y="1031.86" width="143.34" height="6.73"/><ellipse class="cls-15" cx="297.43" cy="1035.23" rx="1.3" ry="1.19"/><ellipse class="cls-16" cx="301.05" cy="1035.23" rx="1.3" ry="1.19"/><ellipse class="cls-17" cx="304.67" cy="1035.23" rx="1.3" ry="1.19"/><path class="cls-18" d="M190.15,1143.68H328.72c9.29,0,16.81-6.86,16.81-15.32v-70.51Z"/><path class="cls-18" d="M131.39,1090.33V1019.7c0-5.07,6.15-14.2,15.44-14.2h78.73Z"/><text class="cls-19" transform="translate(131.77 921.12)">Wilson Martínez</text><text class="cls-29" transform="translate(435.06 1247.09)">Denegado</text><text class="cls-21" transform="translate(431.36 1016.78)">Portatil</text><text class="cls-22" transform="translate(435.06 1082.53)"><tspan class="cls-23">L</tspan><tspan x="20.61" y="0">o</tspan><tspan class="cls-24" x="45.31" y="0">r</tspan><tspan x="59.58" y="0">em ipsum dolor sit ame</tspan><tspan class="cls-25" x="499.23" y="0">t</tspan><tspan x="513.99" y="0">, </tspan><tspan class="cls-26" x="0" y="54">c</tspan><tspan x="19.89" y="54">onse</tspan><tspan class="cls-27" x="109.93" y="54">c</tspan><tspan class="cls-26" x="130.68" y="54">t</tspan><tspan x="145.3" y="54">etuer adipiscing eli</tspan><tspan class="cls-25" x="499.94" y="54">t</tspan><tspan x="514.7" y="54">, </tspan><tspan x="0" y="108">sed diam nonum</tspan><tspan class="cls-28" x="316.93" y="108">m</tspan><tspan x="353.88" y="108">y nibh eu</tspan><tspan x="527.58" y="108">-</tspan></text><rect class="cls-5" x="48.77" y="1407.21" width="961" height="499" rx="45.68"/><rect class="cls-6" x="131.39" y="1551.5" width="215.01" height="138.18" rx="12.56"/><rect class="cls-7" x="145" y="1562.34" width="187.8" height="116.51" rx="2.35"/><path class="cls-8" d="M370.19,1753.75H107.61c-6.51,0-10.43-6.84-6.89-12l33.05-48.49a8.32,8.32,0,0,1,6.89-3.56H338.13a8.33,8.33,0,0,1,7,3.65l32.05,48.49C380.57,1747,376.64,1753.75,370.19,1753.75Z"/><path class="cls-9" d="M378.27,1745.15c-.64,5-3.8,9.23-8.08,9.23H107.61c-4.29,0-7.44-4.23-8.09-9.22-3.26,6.72,2,16.76,8.54,16.76H369.73C376.24,1761.92,381.56,1751.87,378.27,1745.15Z"/><path class="cls-10" d="M170.63,1721.09H129a1,1,0,0,1-1-1.42l5.81-10.6a1.11,1.11,0,0,1,1-.54h40.46a1,1,0,0,1,1,1.34l-4.66,10.6A1.08,1.08,0,0,1,170.63,1721.09Z"/><path class="cls-10" d="M308,1721.09h41.63a1,1,0,0,0,1-1.42l-5.81-10.6a1.11,1.11,0,0,0-1-.54H303.38a1,1,0,0,0-1,1.34l4.65,10.6A1.1,1.1,0,0,0,308,1721.09Z"/><path class="cls-10" d="M163.64,1707.27H137.58a.79.79,0,0,1-.6-1.14l3.64-8.47a.67.67,0,0,1,.6-.44h25.33a.78.78,0,0,1,.63,1.08l-2.91,8.48A.69.69,0,0,1,163.64,1707.27Z"/><path class="cls-10" d="M192.59,1707.27H166.53a.79.79,0,0,1-.61-1.14l3.64-8.47a.68.68,0,0,1,.61-.44H195.5a.78.78,0,0,1,.62,1.08l-2.91,8.48A.69.69,0,0,1,192.59,1707.27Z"/><path class="cls-10" d="M202.23,1719.83H176.17a.79.79,0,0,1-.6-1.14l3.64-8.47a.67.67,0,0,1,.6-.44h25.33a.78.78,0,0,1,.63,1.08l-2.91,8.48A.68.68,0,0,1,202.23,1719.83Z"/><path class="cls-10" d="M202.23,1721.09H176.17c-.5,0-.82-.77-.6-1.42l3.64-10.6a.7.7,0,0,1,.6-.54h25.33c.48,0,.81.7.63,1.34l-2.91,10.6C202.76,1720.84,202.51,1721.09,202.23,1721.09Z"/><path class="cls-10" d="M149.21,1737.42h-30.8c-.59,0-1-.92-.71-1.71L122,1723a.83.83,0,0,1,.71-.66h29.94c.56,0,.95.85.74,1.62L150,1736.68C149.83,1737.13,149.53,1737.42,149.21,1737.42Z"/><path class="cls-10" d="M183.66,1737.42H152.87c-.6,0-1-.92-.72-1.71l4.3-12.71a.86.86,0,0,1,.72-.66H187.1c.57,0,1,.85.74,1.62l-3.44,12.72C184.28,1737.13,184,1737.42,183.66,1737.42Z"/><path class="cls-10" d="M328.59,1737.42h30.79c.6,0,1-.92.72-1.71L355.8,1723c-.14-.4-.41-.66-.72-.66H325.15c-.57,0-.95.85-.74,1.62l3.44,12.72C328,1737.13,328.26,1737.42,328.59,1737.42Z"/><path class="cls-10" d="M294.13,1737.42h30.8c.59,0,1-.92.71-1.71l-4.3-12.71a.83.83,0,0,0-.71-.66H290.69c-.56,0-.95.85-.74,1.62l3.44,12.72C293.51,1737.13,293.81,1737.42,294.13,1737.42Z"/><path class="cls-10" d="M236.69,1721.09H207.87c-.5,0-.82-.77-.6-1.42l.88-10.6a.71.71,0,0,1,.61-.54h28.08c.48,0,.81.7.63,1.34l-.15,10.6C237.21,1720.84,237,1721.09,236.69,1721.09Z"/><path class="cls-10" d="M240.1,1721.09h28.82c.5,0,.82-.77.6-1.42l-.88-10.6a.71.71,0,0,0-.61-.54H239.94c-.47,0-.8.7-.62,1.34l.15,10.6C239.58,1720.84,239.82,1721.09,240.1,1721.09Z"/><path class="cls-10" d="M274.18,1721.09h26.06c.5,0,.83-.77.61-1.42l-3.64-10.6a.71.71,0,0,0-.61-.54H271.27c-.47,0-.8.7-.62,1.34l2.91,10.6C273.66,1720.84,273.91,1721.09,274.18,1721.09Z"/><path class="cls-10" d="M221.53,1707.27H195.47a.79.79,0,0,1-.6-1.14l3.63-8.47a.68.68,0,0,1,.61-.44h25.33a.79.79,0,0,1,.63,1.08l-2.91,8.48A.71.71,0,0,1,221.53,1707.27Z"/><path class="cls-10" d="M314.15,1707.27h26.06a.79.79,0,0,0,.61-1.14l-3.64-8.47a.68.68,0,0,0-.61-.44H311.24a.78.78,0,0,0-.62,1.08l2.91,8.48A.69.69,0,0,0,314.15,1707.27Z"/><path class="cls-10" d="M285.21,1707.27h26.06a.79.79,0,0,0,.6-1.14l-3.64-8.47a.66.66,0,0,0-.6-.44H282.3a.79.79,0,0,0-.63,1.08l2.91,8.48A.7.7,0,0,0,285.21,1707.27Z"/><path class="cls-10" d="M256.27,1707.27h26.06a.79.79,0,0,0,.6-1.14l-3.64-8.47a.67.67,0,0,0-.6-.44H253.36a.78.78,0,0,0-.63,1.08l2.91,8.48A.69.69,0,0,0,256.27,1707.27Z"/><rect class="cls-10" x="226.49" y="1697.22" width="24.81" height="10.05" rx="1.12"/><rect class="cls-10" x="189.28" y="1722.34" width="99.23" height="15.07" rx="1.12"/><rect class="cls-8" x="112.79" y="1757.93" width="39.97" height="1.26"/><rect class="cls-8" x="159.65" y="1757.93" width="39.97" height="1.26"/><rect class="cls-11" x="165.85" y="1583.97" width="143.34" height="75.37"/><rect class="cls-12" x="171.81" y="1592.76" width="63.4" height="20.73"/><rect class="cls-13" x="239.83" y="1592.76" width="63.4" height="3.01"/><rect class="cls-13" x="239.83" y="1600.89" width="63.4" height="3.01"/><rect class="cls-13" x="239.83" y="1609.02" width="63.4" height="3.01"/><rect class="cls-13" x="239.83" y="1617.15" width="63.4" height="3.01"/><rect class="cls-13" x="239.83" y="1625.28" width="63.4" height="3.01"/><rect class="cls-13" x="239.83" y="1633.41" width="63.4" height="3.01"/><rect class="cls-13" x="239.83" y="1641.54" width="63.4" height="3.01"/><rect class="cls-13" x="239.83" y="1649.67" width="63.4" height="3.01"/><rect class="cls-13" x="171.81" y="1617.15" width="63.4" height="3.01"/><rect class="cls-13" x="171.81" y="1625.28" width="63.4" height="3.01"/><rect class="cls-13" x="171.81" y="1633.41" width="63.4" height="3.01"/><rect class="cls-13" x="171.81" y="1641.54" width="63.4" height="3.01"/><rect class="cls-13" x="171.81" y="1649.67" width="63.4" height="3.01"/><rect class="cls-14" x="165.85" y="1577.86" width="143.34" height="6.73"/><ellipse class="cls-15" cx="297.43" cy="1581.23" rx="1.3" ry="1.19"/><ellipse class="cls-16" cx="301.05" cy="1581.23" rx="1.3" ry="1.19"/><ellipse class="cls-17" cx="304.67" cy="1581.23" rx="1.3" ry="1.19"/><path class="cls-18" d="M190.15,1689.68H328.72c9.29,0,16.81-6.86,16.81-15.32v-70.51Z"/><path class="cls-18" d="M131.39,1636.33V1565.7c0-5.07,6.15-14.2,15.44-14.2h78.73Z"/><text class="cls-19" transform="translate(131.77 1467.12)">Raúl Cerón</text><text class="cls-20" transform="translate(435.06 1793.09)">Aprobado</text><text class="cls-21" transform="translate(431.36 1562.78)">Portatil</text><text class="cls-22" transform="translate(435.06 1628.53)"><tspan class="cls-23">L</tspan><tspan x="20.61" y="0">o</tspan><tspan class="cls-24" x="45.31" y="0">r</tspan><tspan x="59.58" y="0">em ipsum dolor sit ame</tspan><tspan class="cls-25" x="499.23" y="0">t</tspan><tspan x="513.99" y="0">, </tspan><tspan class="cls-26" x="0" y="54">c</tspan><tspan x="19.89" y="54">onse</tspan><tspan class="cls-27" x="109.93" y="54">c</tspan><tspan class="cls-26" x="130.68" y="54">t</tspan><tspan x="145.3" y="54">etuer adipiscing eli</tspan><tspan class="cls-25" x="499.94" y="54">t</tspan><tspan x="514.7" y="54">, </tspan><tspan x="0" y="108">sed diam nonum</tspan><tspan class="cls-28" x="316.93" y="108">m</tspan><tspan x="353.88" y="108">y nibh eu</tspan><tspan x="527.58" y="108">-</tspan></text></g></g></svg>