<svg id="Capa_1" data-name="Capa 1" xmlns="http://www.w3.org/2000/svg" viewBox="0 0 1080 1920"><defs><style>.cls-1,.cls-6{fill:#fff;}.cls-2{fill:#999;stroke-width:3px;}.cls-16,.cls-2{stroke:#000;}.cls-10,.cls-12,.cls-13,.cls-14,.cls-16,.cls-2,.cls-7,.cls-9{stroke-miterlimit:10;}.cls-3,.cls-5,.cls-6{font-size:50px;}.cls-3,.cls-5,.cls-6,.cls-8{font-family:BerlinSansFBDemi-Bold, Berlin Sans FB Demi;font-weight:700;}.cls-4{fill:#ff7f00;}.cls-5{opacity:0.4;}.cls-14,.cls-15,.cls-7{fill:none;}.cls-7{stroke:#ff7f00;stroke-width:10px;}.cls-8{font-size:80px;}.cls-9{fill:#dfe7e8;}.cls-10,.cls-12,.cls-13,.cls-14,.cls-9{stroke:#1d1d1b;stroke-width:7px;}.cls-10{fill:#848a90;}.cls-11{opacity:0.25;}.cls-12{fill:#abb4bb;}.cls-13{fill:#31b9d1;}.cls-15{stroke:#fff;stroke-linecap:round;stroke-linejoin:round;stroke-width:20px;}.cls-16{stroke-width:2px;}.cls-17{font-size:40px;font-family:MyriadPro-Regular, Myriad Pro;}.cls-18{letter-spacing:0.01em;}.cls-19{letter-spacing:-0.01em;}.cls-20{letter-spacing:-0.01em;}.cls-21{letter-spacing:-0.01em;}.cls-22{letter-spacing:0.01em;}</style></defs><rect class="cls-1" x="967.31" y="42.6" width="20.26" height="20.26"/><path class="cls-1" d="M800.38,42.6c-52.84-.8-52.84,89.48,0,88.67C853.21,132.07,853.21,41.8,800.38,42.6Zm-.65,65.11c-18.15,0-18.15-41.15,0-41.12S817.89,107.74,799.73,107.71Z"/><path class="cls-1" d="M866.78,78.44c0-6.14-4.12-11.85-11.84-11.85-11.33.16-11.38,23.56.79,22.77V130h19.89V89.76c5.42-4.86,6.7-2.06,11.73-.48,3.09,0,6-10,6-18.38S872.62,72.44,866.78,78.44Z"/><rect class="cls-1" x="967.31" y="71.61" width="20.48" height="59.66"/><path class="cls-1" d="M1028.2,42.6V111H998.91v20.24h49.77V42.6Z"/><path class="cls-1" d="M920.75,73.31V41.57H900.12v77.9c.45,11.88,11.39,12.4,20.63,11.8,32.51,0,35.44-22.32,35.44-40.7C956.19,62.87,920.75,64.13,920.75,73.31Zm13.91,30.25A12.41,12.41,0,0,1,922.25,116V87.15C931.09,87.06,935.8,95.52,934.66,103.56Z"/><rect class="cls-2" x="168.19" y="1278.31" width="743.63" height="108.73" rx="54.37"/><text class="cls-3" transform="translate(413.13 1348.2) scale(0.85 1)">dd/mm/aaaa</text><rect class="cls-2" x="168.19" y="1414.48" width="743.63" height="108.73" rx="54.37"/><rect class="cls-4" x="367.4" y="1624" width="345.2" height="108.73" rx="54.37"/><text class="cls-5" transform="translate(460.04 1484.38) scale(0.85 1)">¿Donde?</text><text class="cls-6" transform="translate(461.6 1694.32) scale(0.85 1)">Reservar</text><rect class="cls-7" x="63" y="346" width="963" height="1495" rx="71.54"/><rect class="cls-4" x="0.5" y="0.5" width="1079" height="172"/><text class="cls-8" transform="translate(334.06 305.91)">VideoBeam</text><rect class="cls-9" x="211.07" y="472.17" width="657.86" height="258.7" rx="25.48"/><rect class="cls-10" x="258.82" y="732.36" width="562.35" height="50.55"/><path class="cls-11" d="M865.79,530.19V717c0,10-20.08,10.26-68.39,10.26H482.64Z"/><circle class="cls-12" cx="693.14" cy="601.52" r="153.14"/><circle class="cls-13" cx="693.14" cy="601.52" r="105.56"/><path class="cls-14" d="M667.37,544.59a61,61,0,0,0-35,32.09"/><rect class="cls-10" x="259.35" y="624.74" width="124.89" height="44.6"/><rect class="cls-10" x="280.16" y="784.4" width="38.66" height="44.6"/><rect class="cls-10" x="760.04" y="784.4" width="38.66" height="44.6"/><line class="cls-10" x1="253.4" y1="545.77" x2="384.24" y2="545.77"/><line class="cls-10" x1="253.4" y1="575.5" x2="306.93" y2="575.5"/><path class="cls-11" d="M211.07,674V487.24c0-10,11.78-10.26,40.11-10.26h184.6Z"/><polyline class="cls-15" points="87.64 47.87 49.01 86.5 87.64 125.13"/><line class="cls-15" x1="150.44" y1="86.5" x2="49.01" y2="86.5"/><line class="cls-16" x1="129.78" y1="1005.08" x2="950.22" y2="1005.08"/><text class="cls-17" transform="translate(129.78 978.8)"><tspan class="cls-18">S</tspan><tspan x="19.96" y="0">ele</tspan><tspan class="cls-19" x="69.48" y="0">c</tspan><tspan x="87.16" y="0">cione un p</tspan><tspan class="cls-20" x="262.6" y="0">r</tspan><tspan class="cls-21" x="275.28" y="0">o</tspan><tspan class="cls-20" x="296.96" y="0">y</tspan><tspan x="315.4" y="0">e</tspan><tspan class="cls-22" x="335.44" y="0">c</tspan><tspan class="cls-19" x="353.88" y="0">t</tspan><tspan x="366.88" y="0">or</tspan></text><line class="cls-16" x1="129.78" y1="1119.78" x2="950.22" y2="1119.78"/><text class="cls-17" transform="translate(129.78 1093.5)"><tspan class="cls-18">S</tspan><tspan x="19.96" y="0">ele</tspan><tspan class="cls-19" x="69.48" y="0">c</tspan><tspan x="87.16" y="0">cione un p</tspan><tspan class="cls-20" x="262.6" y="0">r</tspan><tspan class="cls-21" x="275.28" y="0">o</tspan><tspan class="cls-20" x="296.96" y="0">y</tspan><tspan x="315.4" y="0">e</tspan><tspan class="cls-22" x="335.44" y="0">c</tspan><tspan class="cls-19" x="353.88" y="0">t</tspan><tspan x="366.88" y="0">or</tspan></text><polygon points="913.61 960.37 930.73 960.37 922.17 975.2 913.61 990.03 905.05 975.2 896.49 960.37 913.61 960.37"/><polygon points="913.61 1075.07 930.73 1075.07 922.17 1089.9 913.61 1104.73 905.05 1089.9 896.49 1075.07 913.61 1075.07"/></svg>