<svg id="Capa_1" data-name="Capa 1" xmlns="http://www.w3.org/2000/svg" viewBox="0 0 1076 1914"><defs><style>.cls-1{fill:#ff7f00;}.cls-2,.cls-4{fill:#fff;}.cls-3{font-size:60px;font-family:BerlinSansFBDemi-Bold, Berlin Sans FB Demi;font-weight:700;}.cls-4{opacity:0.2;}</style></defs><rect class="cls-1" y="3.5" width="1076" height="1908.5"/><circle class="cls-1" cx="537.75" cy="398.78" r="308"/><rect class="cls-2" x="619.05" y="467.58" width="26.32" height="26.32"/><path class="cls-2" d="M402.22,467.58c-68.62-1-68.62,116.22,0,115.18C470.85,583.8,470.85,466.54,402.22,467.58Zm-.83,84.58c-23.59,0-23.59-53.45,0-53.42S425,552.19,401.39,552.16Z"/><path class="cls-2" d="M488.48,514.13c0-8-5.36-15.39-15.39-15.39-14.71.2-14.77,30.61,1,29.58v52.77H500V528.84c7-6.32,8.69-2.68,15.24-.62,4,0,7.83-13,7.83-23.88S496.06,506.34,488.48,514.13Z"/><rect class="cls-2" x="619.05" y="505.27" width="26.6" height="77.49"/><path class="cls-2" d="M698.15,467.58v88.88H660.09v26.3h64.66V467.58Z"/><path class="cls-2" d="M558.58,507.47V466.24h-26.8V567.43c.58,15.43,14.79,16.1,26.8,15.33,42.23,0,46-29,46-52.88C604.61,493.91,558.58,495.54,558.58,507.47Zm18.07,39.29a16.12,16.12,0,0,1-16.12,16.12V525.45C572,525.32,578.13,536.32,576.65,546.76Z"/><path class="cls-2" d="M546,318.21c.51,30.28,45.55,30.28,46.07,0C591.55,287.94,546.52,287.93,546,318.21Zm8,4.94a3.71,3.71,0,0,1,0-.58c0,.2,0,.39,0,.58.52,5.08,10.49,8.72,17.9,7.57,6.8-.75,11.94-4.1,12.09-8.15C584.39,338.3,554.46,338.49,554.05,323.15Z"/><path class="cls-2" d="M482.56,318.21c.52,30.28,45.56,30.28,46.07,0C528.12,287.94,483.08,287.93,482.56,318.21Zm8.06,4.94a5.49,5.49,0,0,1,0-.58c0,.2,0,.39,0,.58.52,5.08,10.48,8.72,17.89,7.57,6.8-.75,12-4.1,12.09-8.15C521,338.3,491,338.49,490.62,323.15Z"/><path class="cls-2" d="M484.5,400.23a63.53,63.53,0,0,1-4,22.48,95.56,95.56,0,0,1-38.41-76.15C465.58,347.47,484.5,371.2,484.5,400.23Z"/><path class="cls-2" d="M591,400.23a63.53,63.53,0,0,0,4,22.48,95.56,95.56,0,0,0,38.41-76.15C609.92,347.47,591,371.2,591,400.23Z"/><path class="cls-2" d="M632.09,336.21c-.09-39.12-26.27-72.37-62.85-84.82a46.3,46.3,0,0,0,5.38-23.87c-1,.36-2.08.78-3.1,1.23a42.61,42.61,0,0,0,1.58-14.15c-13.72,4.77-25.87,17.16-31.31,31.63-3-.15-6.16-.14-9.19,0C527,232,515,219.9,501.51,215.2a42.61,42.61,0,0,0,1.58,14.15c-1-.45-2.06-.87-3.1-1.23a46.15,46.15,0,0,0,5.13,23.36c-36.43,12.53-62.49,45.71-62.57,84.73,29.84,4.18,51.2,40.7,44.78,73.92,25.66,2.16,44.9,23.06,50,48.22,5.09-25.17,24.32-46.06,50-48.22a73.36,73.36,0,0,1-1-12.16C586.29,366.56,606.19,340.56,632.09,336.21Zm-88.88,5.14-1.29,3.94-4.45,13.63L533,345.29l-1.37-4.2c-18.23,20.29-59.88,12.66-60.48-22.88.68-40,53.48-44.64,66.15-13.8,12.67-30.85,65.46-26.24,66.14,13.8C602.86,353.61,561.55,361.31,543.21,341.35Z"/><rect class="cls-2" x="307.56" y="1341.46" width="460.87" height="118.04" rx="59.02"/><text class="cls-3" transform="translate(428.74 1419.62)">Ingresar</text><rect class="cls-2" x="168.5" y="818.01" width="739" height="160.43" rx="80.21"/><path d="M247.41,919.2h-5V889.12l-5.06,3.1v-5.15l5.06-3.37h5Z"/><path d="M258,916.91a10.24,10.24,0,0,1-2.58-7.43V893.35c0-3.19.87-5.67,2.59-7.44s4.24-2.65,7.55-2.65,5.83.88,7.55,2.64,2.58,4.24,2.58,7.45v16.13c0,3.19-.87,5.67-2.59,7.44s-4.24,2.65-7.54,2.65S259.76,918.68,258,916.91Zm11.45-3.46a5.68,5.68,0,0,0,1.26-4V893.35a5.73,5.73,0,0,0-1.25-4,6.22,6.22,0,0,0-7.81,0,5.73,5.73,0,0,0-1.25,4v16.13a5.68,5.68,0,0,0,1.26,4,6.19,6.19,0,0,0,7.79,0Z"/><path d="M287.79,918.35a8.91,8.91,0,0,1-3.77-3.46,9.92,9.92,0,0,1-1.33-5.19v-.58a9.94,9.94,0,0,1,1.33-5,8.89,8.89,0,0,1,3.55-3.54,7.73,7.73,0,0,1-3-3,8.06,8.06,0,0,1-1.13-4.09v-.86a9.46,9.46,0,0,1,1.24-4.89,8.43,8.43,0,0,1,3.52-3.27,12.57,12.57,0,0,1,10.55,0,8.41,8.41,0,0,1,3.51,3.27,9.46,9.46,0,0,1,1.25,4.89v.86a7.88,7.88,0,0,1-1.16,4.12,7.71,7.71,0,0,1-3.07,2.93,9.23,9.23,0,0,1,3.6,3.55,9.74,9.74,0,0,1,1.36,5v.58a9.92,9.92,0,0,1-1.33,5.19,9,9,0,0,1-3.77,3.46,13.76,13.76,0,0,1-11.33,0Zm8.71-4.25a5,5,0,0,0,2-1.92,5.53,5.53,0,0,0,.72-2.84V909a5.56,5.56,0,0,0-.72-2.87,4.91,4.91,0,0,0-2-1.92,7.18,7.18,0,0,0-6.1,0,4.94,4.94,0,0,0-2,1.93,5.65,5.65,0,0,0-.72,2.88v.37a5.49,5.49,0,0,0,.72,2.83,4.91,4.91,0,0,0,2,1.89,7.23,7.23,0,0,0,6.1,0Zm-.41-16a4.45,4.45,0,0,0,1.78-1.84,5.85,5.85,0,0,0,.64-2.76v-.34a5.43,5.43,0,0,0-.64-2.64,4.46,4.46,0,0,0-1.78-1.77,5.53,5.53,0,0,0-2.64-.62,5.46,5.46,0,0,0-2.63.62,4.48,4.48,0,0,0-1.79,1.77,5.48,5.48,0,0,0-.63,2.66v.37a5.69,5.69,0,0,0,.63,2.72,4.51,4.51,0,0,0,1.79,1.83,5.16,5.16,0,0,0,2.63.65A5.22,5.22,0,0,0,296.09,898.09Z"/><path d="M315.11,918.48a8.86,8.86,0,0,1-3.65-3.15,11.4,11.4,0,0,1-1.75-5h5.08a5.37,5.37,0,0,0,.95,2.49,4.38,4.38,0,0,0,1.89,1.45,7.12,7.12,0,0,0,2.73.48,5.29,5.29,0,0,0,3.83-1.32,4.91,4.91,0,0,0,1.37-3.71v-1.07a6,6,0,0,0-1.3-4.12,4.66,4.66,0,0,0-3.66-1.45h-2.51v-4.73h2.51a4.16,4.16,0,0,0,3.22-1.25,5,5,0,0,0,1.15-3.52v-1.09a4.25,4.25,0,0,0-1.21-3.25,4.76,4.76,0,0,0-3.43-1.15,5.21,5.21,0,0,0-2.27.48,4.3,4.3,0,0,0-1.7,1.46,6.76,6.76,0,0,0-1,2.48H310.3a12.84,12.84,0,0,1,1.84-5,9.07,9.07,0,0,1,3.43-3.15,10.15,10.15,0,0,1,4.76-1.07q4.59,0,7.11,2.41a9,9,0,0,1,2.51,6.81v.59a7.68,7.68,0,0,1-1.44,4.64,8.11,8.11,0,0,1-4.08,2.88,7.19,7.19,0,0,1,4.51,2.86,9.5,9.5,0,0,1,1.6,5.66v.59a10.88,10.88,0,0,1-1.2,5.29,7.94,7.94,0,0,1-3.48,3.35,12.21,12.21,0,0,1-5.5,1.15A12.07,12.07,0,0,1,315.11,918.48Z"/><path d="M341.43,918.31a8.19,8.19,0,0,1-3.39-3.66,13.33,13.33,0,0,1-1.16-5.8v0a19.93,19.93,0,0,1,.47-4.15,24.81,24.81,0,0,1,1.34-4.27c.1-.24.2-.48.32-.72l.34-.69,7.72-15.29h5.37l-9.06,17.7,0-.88a4.27,4.27,0,0,1,1.79-1.78,5.67,5.67,0,0,1,2.73-.63,8.72,8.72,0,0,1,4.74,1.24,7.8,7.8,0,0,1,3,3.63,14.44,14.44,0,0,1,1,5.72v0a13.61,13.61,0,0,1-1.15,5.86,8.28,8.28,0,0,1-3.4,3.71,11.95,11.95,0,0,1-10.7,0Zm9-5a6.13,6.13,0,0,0,1.28-4.18v0a7,7,0,0,0-1.34-4.6,4.66,4.66,0,0,0-3.83-1.63,4,4,0,0,0-3.44,1.64,7.55,7.55,0,0,0-1.22,4.61v0a6.08,6.08,0,0,0,1.28,4.16,5.27,5.27,0,0,0,7.27,0Z"/><path d="M368,918.35a9,9,0,0,1-3.77-3.46,9.92,9.92,0,0,1-1.33-5.19v-.58a9.94,9.94,0,0,1,1.33-5,9,9,0,0,1,3.55-3.54,7.71,7.71,0,0,1-3-3,8,8,0,0,1-1.14-4.09v-.86a9.46,9.46,0,0,1,1.25-4.89,8.41,8.41,0,0,1,3.51-3.27,12.57,12.57,0,0,1,10.55,0,8.43,8.43,0,0,1,3.52,3.27,9.46,9.46,0,0,1,1.24,4.89v.86a7.88,7.88,0,0,1-1.16,4.12,7.62,7.62,0,0,1-3.06,2.93,9.36,9.36,0,0,1,3.6,3.55,9.83,9.83,0,0,1,1.35,5v.58a9.92,9.92,0,0,1-1.33,5.19,8.91,8.91,0,0,1-3.77,3.46,13.76,13.76,0,0,1-11.33,0Zm8.72-4.25a5,5,0,0,0,2-1.92,5.53,5.53,0,0,0,.72-2.84V909a5.56,5.56,0,0,0-.72-2.87,4.91,4.91,0,0,0-2-1.92,7.2,7.2,0,0,0-6.11,0,5,5,0,0,0-2,1.93,5.65,5.65,0,0,0-.72,2.88v.37a5.49,5.49,0,0,0,.72,2.83,4.94,4.94,0,0,0,2,1.89,7.25,7.25,0,0,0,6.11,0Zm-.42-16a4.47,4.47,0,0,0,1.79-1.84,5.85,5.85,0,0,0,.63-2.76v-.34a5.42,5.42,0,0,0-.63-2.64,4.48,4.48,0,0,0-1.79-1.77,5.91,5.91,0,0,0-5.27,0,4.4,4.4,0,0,0-1.78,1.77,5.37,5.37,0,0,0-.64,2.66v.37a5.58,5.58,0,0,0,.64,2.72,4.42,4.42,0,0,0,1.78,1.83,5.67,5.67,0,0,0,5.27,0Z"/><path d="M390.86,914.88l12.38-16.5a12.34,12.34,0,0,0,1.68-3,7.94,7.94,0,0,0,.59-2.84v-.05a4.32,4.32,0,0,0-1.24-3.3,5,5,0,0,0-3.54-1.17,4.91,4.91,0,0,0-3.52,1.28,5.85,5.85,0,0,0-1.63,3.63v0h-5.16v0a13.44,13.44,0,0,1,1.8-5.21,9.15,9.15,0,0,1,3.5-3.3,10.43,10.43,0,0,1,5-1.13,12.44,12.44,0,0,1,5.42,1.08,7.66,7.66,0,0,1,3.42,3.16,10.09,10.09,0,0,1,1.17,5v0a11,11,0,0,1-.78,3.93,16.79,16.79,0,0,1-2.18,4l-10.27,14h13.42v4.74h-20Z"/><path d="M419.81,916.91a10.24,10.24,0,0,1-2.58-7.43V893.35q0-4.79,2.59-7.44c1.72-1.76,4.24-2.65,7.54-2.65s5.84.88,7.56,2.64,2.58,4.24,2.58,7.45v16.13c0,3.19-.87,5.67-2.59,7.44s-4.24,2.65-7.55,2.65S421.52,918.68,419.81,916.91Zm11.45-3.46a5.68,5.68,0,0,0,1.25-4V893.35a5.73,5.73,0,0,0-1.24-4,6.22,6.22,0,0,0-7.81,0,5.73,5.73,0,0,0-1.25,4v16.13a5.68,5.68,0,0,0,1.26,4,6.19,6.19,0,0,0,7.79,0Z"/><path d="M463.15,888.15,454,919.2h-5.29l9.18-30.76h-9v5.1h-5V883.7h19.31Z"/><rect class="cls-2" x="168.5" y="1044.7" width="739" height="160.43" rx="80.21"/><path d="M268.26,1149.46h-5V1095.4h5Z"/><path class="cls-4" d="M1074.89,1611.29c-546.49,0-998.58,130.58-1073.78,300.45H1074.89Z"/><path class="cls-4" d="M1.11,1909.82h874.6C740.92,1804.1,563.36,1716.29,362,1664.71c-125.27-32.09-247.49-47-360.9-46.52Z"/><path class="cls-4" d="M1073.23,1614.83c-152.77-5.48-325.61,16.12-498,67.77C387.6,1738.78,230.87,1821.43,121.11,1914h952.12Z"/><path class="cls-4" d="M1.11,1911.74H1073.23c-97.07-103.2-235.05-195.25-400-258-249.46-94.89-499.91-99.62-672.17-28.58Z"/></svg>