<svg id="Capa_1" data-name="Capa 1" xmlns="http://www.w3.org/2000/svg" viewBox="0 0 1076 1914"><defs><style>.cls-1{fill:#ff7f00;}.cls-2,.cls-4{fill:#fff;}.cls-3{font-size:60px;font-family:BerlinSansFBDemi-Bold, Berlin Sans FB Demi;font-weight:700;}.cls-4{opacity:0.2;}.cls-5{font-size:45px;font-family:MyriadPro-Regular, Myriad Pro;}.cls-6{letter-spacing:-0.01em;}.cls-7{letter-spacing:0em;}.cls-8{letter-spacing:0em;}.cls-9{letter-spacing:0em;}.cls-10{letter-spacing:-0.01em;}.cls-11{letter-spacing:0em;}.cls-12{letter-spacing:-0.01em;}.cls-13{letter-spacing:0.01em;}</style></defs><rect class="cls-1" y="3.5" width="1076" height="1908.5"/><circle class="cls-1" cx="537.75" cy="398.78" r="308"/><rect class="cls-2" x="619.05" y="467.58" width="26.32" height="26.32"/><path class="cls-2" d="M402.22,467.58c-68.62-1-68.62,116.22,0,115.18C470.85,583.8,470.85,466.54,402.22,467.58Zm-.83,84.58c-23.59,0-23.59-53.45,0-53.42S425,552.19,401.39,552.16Z"/><path class="cls-2" d="M488.48,514.13c0-8-5.36-15.39-15.39-15.39-14.71.2-14.77,30.61,1,29.58v52.77H500V528.84c7-6.32,8.69-2.68,15.24-.62,4,0,7.83-13,7.83-23.88S496.06,506.34,488.48,514.13Z"/><rect class="cls-2" x="619.05" y="505.27" width="26.6" height="77.49"/><path class="cls-2" d="M698.15,467.58v88.88H660.09v26.3h64.66V467.58Z"/><path class="cls-2" d="M558.58,507.47V466.24h-26.8V567.43c.58,15.43,14.79,16.1,26.8,15.33,42.23,0,46-29,46-52.88C604.61,493.91,558.58,495.54,558.58,507.47Zm18.07,39.29a16.12,16.12,0,0,1-16.12,16.12V525.45C572,525.32,578.13,536.32,576.65,546.76Z"/><path class="cls-2" d="M546,318.21c.51,30.28,45.55,30.28,46.07,0C591.55,287.94,546.52,287.93,546,318.21Zm8,4.94a3.71,3.71,0,0,1,0-.58c0,.2,0,.39,0,.58.52,5.08,10.49,8.72,17.9,7.57,6.8-.75,11.94-4.1,12.09-8.15C584.39,338.3,554.46,338.49,554.05,323.15Z"/><path class="cls-2" d="M482.56,318.21c.52,30.28,45.56,30.28,46.07,0C528.12,287.94,483.08,287.93,482.56,318.21Zm8.06,4.94a5.49,5.49,0,0,1,0-.58c0,.2,0,.39,0,.58.52,5.08,10.48,8.72,17.89,7.57,6.8-.75,12-4.1,12.09-8.15C521,338.3,491,338.49,490.62,323.15Z"/><path class="cls-2" d="M484.5,400.23a63.53,63.53,0,0,1-4,22.48,95.56,95.56,0,0,1-38.41-76.15C465.58,347.47,484.5,371.2,484.5,400.23Z"/><path class="cls-2" d="M591,400.23a63.53,63.53,0,0,0,4,22.48,95.56,95.56,0,0,0,38.41-76.15C609.92,347.47,591,371.2,591,400.23Z"/><path class="cls-2" d="M632.09,336.21c-.09-39.12-26.27-72.37-62.85-84.82a46.3,46.3,0,0,0,5.38-23.87c-1,.36-2.08.78-3.1,1.23a42.61,42.61,0,0,0,1.58-14.15c-13.72,4.77-25.87,17.16-31.31,31.63-3-.15-6.16-.14-9.19,0C527,232,515,219.9,501.51,215.2a42.61,42.61,0,0,0,1.58,14.15c-1-.45-2.06-.87-3.1-1.23a46.15,46.15,0,0,0,5.13,23.36c-36.43,12.53-62.49,45.71-62.57,84.73,29.84,4.18,51.2,40.7,44.78,73.92,25.66,2.16,44.9,23.06,50,48.22,5.09-25.17,24.32-46.06,50-48.22a73.36,73.36,0,0,1-1-12.16C586.29,366.56,606.19,340.56,632.09,336.21Zm-88.88,5.14-1.29,3.94-4.45,13.63L533,345.29l-1.37-4.2c-18.23,20.29-59.88,12.66-60.48-22.88.68-40,53.48-44.64,66.15-13.8,12.67-30.85,65.46-26.24,66.14,13.8C602.86,353.61,561.55,361.31,543.21,341.35Z"/><rect class="cls-2" x="307.56" y="1341.46" width="460.87" height="118.04" rx="59.02"/><text class="cls-3" transform="translate(428.74 1419.62)">Ingresar</text><rect class="cls-2" x="168.5" y="818.01" width="739" height="160.43" rx="80.21"/><path d="M247.38,911.65a10.19,10.19,0,0,1-4.26-4.52,15.9,15.9,0,0,1-1.46-7.14V877.34h5v22.82a8.57,8.57,0,0,0,2,6,8.29,8.29,0,0,0,11.07,0,8.53,8.53,0,0,0,2-6V877.34h5V900a15.89,15.89,0,0,1-1.47,7.14,10.11,10.11,0,0,1-4.27,4.52,15.45,15.45,0,0,1-13.49,0Z"/><path d="M278.92,912.76a15,15,0,0,1-3.67-1.32,14.46,14.46,0,0,1-3.15-2.19l2.95-3.64a16.77,16.77,0,0,0,4.08,2.34,11.11,11.11,0,0,0,4,.78,8.59,8.59,0,0,0,4.43-.91,3,3,0,0,0,1.47-2.75,2.15,2.15,0,0,0-.8-1.83,4.57,4.57,0,0,0-2-.82c-.8-.14-1.92-.26-3.37-.38h-.42l-.41,0h-.39a19.69,19.69,0,0,1-4.18-.72,5.64,5.64,0,0,1-2.84-2,6.5,6.5,0,0,1-1.14-4.12,8.41,8.41,0,0,1,1.1-4.47,6.62,6.62,0,0,1,3.27-2.67,14.32,14.32,0,0,1,5.45-.89,19.21,19.21,0,0,1,3.77.36,16.77,16.77,0,0,1,6.58,2.91l-3,3.64a16.64,16.64,0,0,0-3.75-1.84,11.63,11.63,0,0,0-3.6-.61,6.75,6.75,0,0,0-3.81.87,2.94,2.94,0,0,0-1.27,2.6,1.77,1.77,0,0,0,.72,1.54,4.2,4.2,0,0,0,1.82.68c.73.12,1.77.21,3.12.3l.31,0,.33,0h.14l.15,0a21.33,21.33,0,0,1,4.53.71,6.08,6.08,0,0,1,3.14,2.12,7.25,7.25,0,0,1,1.27,4.59,8.07,8.07,0,0,1-1.18,4.53,7.08,7.08,0,0,1-3.52,2.7,16.76,16.76,0,0,1-5.92.9A19.52,19.52,0,0,1,278.92,912.76Z"/><path d="M305.08,902.9a5.82,5.82,0,0,0,1.36,4.11,5,5,0,0,0,3.82,1.45,5.22,5.22,0,0,0,3.78-1.29,4.86,4.86,0,0,0,1.35-3.69l.34,5.3a7.35,7.35,0,0,1-2.54,3.15,7.15,7.15,0,0,1-4.32,1.27,8,8,0,0,1-6.48-2.7q-2.29-2.7-2.29-7.6V887.49h5Zm10.31-15.41h4.95v25.34h-4.95Z"/><path d="M329,911.26q-2.33-1.93-2.32-5.9a7.18,7.18,0,0,1,2.12-5.64q2.13-1.87,6.43-1.88h7.2l.34,4h-7.52a4.31,4.31,0,0,0-2.92.86,3.41,3.41,0,0,0-1,2.65,3.3,3.3,0,0,0,1.28,2.86,6.62,6.62,0,0,0,3.89.93,11.35,11.35,0,0,0,4.26-.61,2,2,0,0,0,1.41-1.91l.51,3.57a5.9,5.9,0,0,1-1.62,1.68,7.13,7.13,0,0,1-2.24,1,11.33,11.33,0,0,1-2.85.33C332.89,913.2,330.56,912.55,329,911.26Zm13.21-14.49a5.38,5.38,0,0,0-1.33-3.87,5,5,0,0,0-3.77-1.38,10,10,0,0,0-3,.46,8.93,8.93,0,0,0-2.58,1.3l-3.63-2.49a9.42,9.42,0,0,1,3.79-2.7,13.77,13.77,0,0,1,5.24-1,12,12,0,0,1,5.39,1.11,7.68,7.68,0,0,1,3.42,3.22,10.35,10.35,0,0,1,1.17,5.09v16.28h-4.73Z"/><path d="M354.52,887.49h5v25.34h-5Zm12.28,4.79a6,6,0,0,0-2.32-.42,5,5,0,0,0-3.67,1.31,4.9,4.9,0,0,0-1.31,3.62l-.51-4.88a9.32,9.32,0,0,1,3-3.53,7.18,7.18,0,0,1,4.1-1.25,9.19,9.19,0,0,1,3.14.5,7,7,0,0,1,2.45,1.47l-3.25,4.4A4.06,4.06,0,0,0,366.8,892.28Z"/><path d="M375.86,877.34h5v5h-5Zm0,10.15h5v25.34h-5Z"/><path d="M392.49,911.91a8.51,8.51,0,0,1-3.58-3.78,13.28,13.28,0,0,1-1.23-6V898a13,13,0,0,1,1.23-5.9,8.44,8.44,0,0,1,3.58-3.73,13.07,13.07,0,0,1,11.28,0,8.48,8.48,0,0,1,3.57,3.73,13,13,0,0,1,1.24,5.9v4.2a13.1,13.1,0,0,1-1.24,5.92,8.63,8.63,0,0,1-3.57,3.75,13,13,0,0,1-11.28,0Zm9.68-5.08a6.76,6.76,0,0,0,1.42-4.59V898a6.69,6.69,0,0,0-1.42-4.57,5.89,5.89,0,0,0-8.09,0,6.69,6.69,0,0,0-1.42,4.57v4.2a6.76,6.76,0,0,0,1.42,4.59,5.83,5.83,0,0,0,8.09,0Z"/><rect class="cls-2" x="168.5" y="1044.7" width="739" height="160.43" rx="80.21"/><path d="M247.28,1138.26a11.16,11.16,0,0,1-4.33-4.64,15,15,0,0,1-1.54-7v-9.74a15.05,15.05,0,0,1,1.54-7,11.25,11.25,0,0,1,4.33-4.65,12.55,12.55,0,0,1,6.49-1.64,12.19,12.19,0,0,1,5.61,1.3,11.91,11.91,0,0,1,4.29,3.7,14,14,0,0,1,2.33,5.54h-5.11a7.86,7.86,0,0,0-1.55-3,7.52,7.52,0,0,0-2.55-2,7.13,7.13,0,0,0-6.83.34,6.93,6.93,0,0,0-2.54,3,10.14,10.14,0,0,0-.91,4.4v9.74a10.2,10.2,0,0,0,.91,4.4A6.85,6.85,0,0,0,250,1134a7,7,0,0,0,3.81,1,7.22,7.22,0,0,0,3-.66,7,7,0,0,0,2.54-2,7.62,7.62,0,0,0,1.55-3.07H266a13.73,13.73,0,0,1-2.35,5.54,11.82,11.82,0,0,1-4.29,3.7,12.17,12.17,0,0,1-5.59,1.31A12.64,12.64,0,0,1,247.28,1138.26Z"/><path d="M276.67,1138.6a8.49,8.49,0,0,1-3.58-3.77,13.3,13.3,0,0,1-1.23-6v-4.13a13,13,0,0,1,1.23-5.89,8.47,8.47,0,0,1,3.58-3.74,13.07,13.07,0,0,1,11.28,0,8.5,8.5,0,0,1,3.57,3.74,13,13,0,0,1,1.23,5.89v4.2a13,13,0,0,1-1.23,5.92,8.52,8.52,0,0,1-3.57,3.75,12.88,12.88,0,0,1-11.28,0Zm9.68-5.08a6.76,6.76,0,0,0,1.42-4.59v-4.2a6.66,6.66,0,0,0-1.42-4.56,5.89,5.89,0,0,0-8.09,0,6.66,6.66,0,0,0-1.42,4.56v4.2a6.76,6.76,0,0,0,1.42,4.59,5.81,5.81,0,0,0,8.09,0Z"/><path d="M299.83,1114.19h5v25.34h-5Zm15.39,10a5.79,5.79,0,0,0-1.4-4.15,6,6,0,0,0-7.67-.17,4.83,4.83,0,0,0-1.33,3.64l-.52-4.88a9.06,9.06,0,0,1,3.07-3.54,7.44,7.44,0,0,1,4.18-1.25,7.88,7.88,0,0,1,6.39,2.7c1.5,1.8,2.26,4.34,2.26,7.63v15.38h-5Z"/><path d="M325.81,1114.19h11.43v4.49H325.81Zm4,23.77a7.67,7.67,0,0,1-1.43-5v-26.13h5V1133a2.43,2.43,0,0,0,.37,1.43,1.25,1.25,0,0,0,1.07.5h2.4v4.73h-2.88A5.58,5.58,0,0,1,329.85,1138Z"/><path d="M344.07,1114.19h5v25.34h-5Zm12.28,4.78a6.12,6.12,0,0,0-2.32-.41,4.53,4.53,0,0,0-5,4.93l-.51-4.88a9.25,9.25,0,0,1,3-3.53,7.12,7.12,0,0,1,4.1-1.26,9.4,9.4,0,0,1,3.14.5,7.18,7.18,0,0,1,2.45,1.48l-3.25,4.39A4.25,4.25,0,0,0,356.35,1119Z"/><path d="M366.51,1138c-1.55-1.3-2.32-3.26-2.32-5.9a7.15,7.15,0,0,1,2.12-5.64q2.13-1.87,6.43-1.88h7.2l.34,4h-7.52a4.26,4.26,0,0,0-2.92.87,3.4,3.4,0,0,0-1,2.65,3.32,3.32,0,0,0,1.28,2.86,6.7,6.7,0,0,0,3.89.92,11.15,11.15,0,0,0,4.26-.61,2,2,0,0,0,1.41-1.9l.51,3.56a5.81,5.81,0,0,1-1.62,1.69,7.13,7.13,0,0,1-2.24,1,11.33,11.33,0,0,1-2.85.33C370.39,1139.9,368.06,1139.25,366.51,1138Zm13.21-14.5a5.35,5.35,0,0,0-1.33-3.86,5,5,0,0,0-3.77-1.38,9.69,9.69,0,0,0-3,.46,8.91,8.91,0,0,0-2.58,1.29l-3.63-2.49a9.5,9.5,0,0,1,3.79-2.69,13.59,13.59,0,0,1,5.24-1,12,12,0,0,1,5.39,1.11,7.7,7.7,0,0,1,3.42,3.23,10.32,10.32,0,0,1,1.17,5.09v16.28h-4.73Z"/><path d="M396.77,1139.46a15.85,15.85,0,0,1-3.67-1.32,14.5,14.5,0,0,1-3.15-2.2l2.95-3.64a16.82,16.82,0,0,0,4.08,2.35,11.06,11.06,0,0,0,4,.78,8.53,8.53,0,0,0,4.43-.92,3,3,0,0,0,1.48-2.74,2.16,2.16,0,0,0-.81-1.84,4.59,4.59,0,0,0-2-.81c-.79-.14-1.92-.27-3.37-.38h-.41l-.42,0h-.39a20.36,20.36,0,0,1-4.17-.72,5.71,5.71,0,0,1-2.85-2,6.59,6.59,0,0,1-1.13-4.13,8.35,8.35,0,0,1,1.1-4.46,6.69,6.69,0,0,1,3.27-2.68,14.5,14.5,0,0,1,5.44-.89,18.33,18.33,0,0,1,3.77.37,16.4,16.4,0,0,1,6.58,2.9l-3,3.64a17,17,0,0,0-3.75-1.83,11.25,11.25,0,0,0-3.6-.61,6.79,6.79,0,0,0-3.81.87,2.93,2.93,0,0,0-1.26,2.6,1.75,1.75,0,0,0,.72,1.53,4.16,4.16,0,0,0,1.81.69c.74.11,1.78.21,3.13.29a1.51,1.51,0,0,0,.3,0l.33,0h.15l.15,0a22,22,0,0,1,4.53.71,6.09,6.09,0,0,1,3.13,2.13,7.15,7.15,0,0,1,1.27,4.59,8.1,8.1,0,0,1-1.17,4.52,7,7,0,0,1-3.53,2.7,16.7,16.7,0,0,1-5.92.91A19.42,19.42,0,0,1,396.77,1139.46Z"/><path d="M422.32,1138.58a8.83,8.83,0,0,1-3.8-3.87,13.42,13.42,0,0,1-1.3-6.17v-2.85a14.88,14.88,0,0,1,1.26-6.42,9,9,0,0,1,3.64-4.06,11.38,11.38,0,0,1,5.77-1.39,9.16,9.16,0,0,1,5.42,1.59,9.93,9.93,0,0,1,3.43,4.59,19.6,19.6,0,0,1,1.18,7.2v1.66H420.83v-4h12.35a8.44,8.44,0,0,0-1.6-4.82,4.47,4.47,0,0,0-3.69-1.73,5.41,5.41,0,0,0-4.39,1.86,8,8,0,0,0-1.55,5.25v3.22a6.61,6.61,0,0,0,1.66,4.83,6.31,6.31,0,0,0,4.72,1.69,7.81,7.81,0,0,0,3-.61,8.78,8.78,0,0,0,2.66-1.71l3.27,3.27a13.69,13.69,0,0,1-4.22,2.8,12,12,0,0,1-4.71,1A12.67,12.67,0,0,1,422.32,1138.58Z"/><path d="M444.76,1114.19h5v25.34h-5Zm12.05-5.41a7.58,7.58,0,0,1-1.53-.82l-.27-.17a3.15,3.15,0,0,0-.27-.19,3.16,3.16,0,0,1-.27-.2c-.63-.45-1.14-.79-1.51-1a2.18,2.18,0,0,0-1-.32,1.75,1.75,0,0,0-1.28.42,1.67,1.67,0,0,0-.43,1.27V1109h-3.86v-1.1a7,7,0,0,1,1.25-4.54,4.54,4.54,0,0,1,3.73-1.51,4.45,4.45,0,0,1,1.77.36,9.26,9.26,0,0,1,1.75,1l.2.15.26.19a14.63,14.63,0,0,0,1.4,1,1.9,1.9,0,0,0,1,.32,1.64,1.64,0,0,0,1.28-.46,2,2,0,0,0,.43-1.42v-1h3.86v.83a7.42,7.42,0,0,1-1.24,4.69,4.45,4.45,0,0,1-3.72,1.56A4.15,4.15,0,0,1,456.81,1108.78Zm3.33,15.39a5.83,5.83,0,0,0-1.39-4.15,6.06,6.06,0,0,0-7.68-.17,4.83,4.83,0,0,0-1.33,3.64l-.52-4.88a9.14,9.14,0,0,1,3.07-3.54,7.47,7.47,0,0,1,4.19-1.25,7.86,7.86,0,0,1,6.38,2.7q2.26,2.7,2.26,7.63v15.38h-5Z"/><path d="M473.79,1138c-1.55-1.3-2.32-3.26-2.32-5.9s.7-4.39,2.12-5.64,3.56-1.88,6.42-1.88h7.2l.34,4H480a4.23,4.23,0,0,0-2.92.87,3.37,3.37,0,0,0-1,2.65,3.32,3.32,0,0,0,1.28,2.86,6.76,6.76,0,0,0,3.9.92,11.22,11.22,0,0,0,4.26-.61,2,2,0,0,0,1.4-1.9l.52,3.56a5.72,5.72,0,0,1-1.63,1.69,7.08,7.08,0,0,1-2.23,1,11.41,11.41,0,0,1-2.86.33C477.67,1139.9,475.33,1139.25,473.79,1138Zm13.2-14.5a5.31,5.31,0,0,0-1.33-3.86,5,5,0,0,0-3.77-1.38,9.69,9.69,0,0,0-3,.46,9,9,0,0,0-2.57,1.29l-3.64-2.49a9.53,9.53,0,0,1,3.8-2.69,13.54,13.54,0,0,1,5.23-1,12.1,12.1,0,0,1,5.4,1.11,7.7,7.7,0,0,1,3.42,3.23,10.32,10.32,0,0,1,1.17,5.09v16.28H487Z"/><path class="cls-4" d="M1074.89,1609.29c-546.49,0-998.58,130.58-1073.78,300.45H1074.89Z"/><path class="cls-4" d="M1.11,1907.82h874.6C740.92,1802.1,563.36,1714.29,362,1662.71c-125.27-32.09-247.49-47-360.9-46.52Z"/><path class="cls-4" d="M1073.23,1612.83c-152.77-5.48-325.61,16.12-498,67.77C387.6,1736.78,230.87,1819.43,121.11,1912h952.12Z"/><path class="cls-4" d="M1.11,1909.74H1073.23c-97.07-103.2-235.05-195.25-400-258-249.46-94.89-499.91-99.62-672.17-28.58Z"/><rect class="cls-2" x="66.29" y="1648.56" width="943.43" height="132.61" rx="41.96"/><text class="cls-5" transform="translate(122.16 1734.22)"> <tspan class="cls-6" x="9.54" y="0">C</tspan><tspan x="35.14" y="0">o</tspan><tspan class="cls-7" x="59.85" y="0">n</tspan><tspan x="84.64" y="0">t</tspan><tspan class="cls-8" x="99.54" y="0">r</tspan><tspan x="114.03" y="0">aseña o usua</tspan><tspan class="cls-9" x="355.63" y="0">r</tspan><tspan x="370.53" y="0">io in</tspan><tspan class="cls-10" x="450.8" y="0">c</tspan><tspan class="cls-11" x="470.69" y="0">o</tspan><tspan class="cls-9" x="495.4" y="0">r</tspan><tspan class="cls-12" x="510.29" y="0">r</tspan><tspan x="524.56" y="0">e</tspan><tspan class="cls-13" x="547.1" y="0">c</tspan><tspan class="cls-10" x="567.85" y="0">t</tspan><tspan class="cls-11" x="582.47" y="0">o </tspan></text></svg>