<svg id="Capa_1" data-name="Capa 1" xmlns="http://www.w3.org/2000/svg" viewBox="0 0 1080 1920"><defs><style>.cls-1{fill:#ff7f00;}.cls-2,.cls-3,.cls-4{fill:#fff;}.cls-3{stroke:#fff;stroke-miterlimit:10;}.cls-4{font-size:34.5px;font-family:FranklinGothic-Heavy, Franklin Gothic Heavy;font-weight:800;}</style></defs><rect class="cls-1" width="1080" height="1920"/><rect class="cls-2" x="621.3" y="1028.8" width="26.32" height="26.32"/><path class="cls-2" d="M404.47,1028.8c-68.62-1-68.62,116.22,0,115.18C473.1,1145,473.1,1027.76,404.47,1028.8Zm-.83,84.58c-23.59,0-23.59-53.46,0-53.42S427.22,1113.41,403.64,1113.38Z"/><path class="cls-2" d="M490.73,1075.35c0-8-5.36-15.39-15.39-15.39-14.71.2-14.77,30.61,1,29.58v52.77h25.84v-52.25c7-6.32,8.69-2.68,15.24-.63,4,0,7.83-12.94,7.83-23.88S498.31,1067.56,490.73,1075.35Z"/><rect class="cls-2" x="621.3" y="1066.49" width="26.6" height="77.49"/><path class="cls-2" d="M700.4,1028.8v88.88H662.34V1144H727V1028.8Z"/><path class="cls-2" d="M560.83,1068.69v-41.23H534v101.18c.58,15.44,14.79,16.11,26.8,15.34,42.23,0,46-29,46-52.88C606.86,1055.12,560.83,1056.76,560.83,1068.69ZM578.9,1108a16.12,16.12,0,0,1-16.12,16.12v-37.43C574.25,1086.54,580.38,1097.53,578.9,1108Z"/><path class="cls-2" d="M548.25,879.43c.51,30.27,45.55,30.28,46.07,0C593.8,849.16,548.77,849.15,548.25,879.43Zm8,4.94a3.71,3.71,0,0,1,0-.58c0,.2,0,.39,0,.58.52,5.08,10.49,8.72,17.9,7.57,6.8-.75,11.94-4.1,12.09-8.15C586.64,899.52,556.71,899.71,556.3,884.37Z"/><path class="cls-2" d="M484.81,879.43c.52,30.27,45.56,30.28,46.07,0C530.37,849.16,485.33,849.15,484.81,879.43Zm8.06,4.94a5.49,5.49,0,0,1,0-.58c0,.2,0,.39,0,.58.52,5.08,10.48,8.72,17.89,7.57,6.8-.75,12-4.1,12.09-8.15C523.21,899.52,493.27,899.71,492.87,884.37Z"/><path class="cls-2" d="M486.75,961.45a63.44,63.44,0,0,1-4,22.47,95.53,95.53,0,0,1-38.41-76.14C467.83,908.69,486.75,932.42,486.75,961.45Z"/><path class="cls-2" d="M593.25,961.45a63.44,63.44,0,0,0,4,22.47,95.53,95.53,0,0,0,38.41-76.14C612.17,908.69,593.25,932.42,593.25,961.45Z"/><path class="cls-2" d="M634.34,897.42c-.09-39.11-26.27-72.37-62.85-84.82a46.24,46.24,0,0,0,5.38-23.86c-1,.36-2.08.78-3.1,1.23a42.61,42.61,0,0,0,1.58-14.15C561.63,780.58,549.48,793,544,807.45a90.86,90.86,0,0,0-9.19,0c-5.56-14.21-17.56-26.34-31.09-31a42.61,42.61,0,0,0,1.58,14.15c-1-.45-2.06-.87-3.1-1.23a46.11,46.11,0,0,0,5.13,23.35c-36.43,12.53-62.49,45.72-62.57,84.73,29.84,4.19,51.2,40.7,44.78,73.93,25.66,2.15,44.9,23,50,48.22,5.09-25.17,24.32-46.06,50-48.22a73.45,73.45,0,0,1-1-12.16C588.54,927.77,608.44,901.77,634.34,897.42Zm-88.88,5.15-1.29,3.94-4.45,13.63-4.45-13.63-1.37-4.21C515.67,922.59,474,915,473.42,879.43c.68-40,53.48-44.64,66.15-13.81,12.67-30.84,65.46-26.24,66.14,13.81C605.11,914.82,563.8,922.53,545.46,902.57Z"/><path class="cls-3" d="M427.33,1823a13.49,13.49,0,0,1-3.1-1.06,12.76,12.76,0,0,1-2.69-1.77l2.24-2.75a9.9,9.9,0,0,0,3.23,1.9,11,11,0,0,0,3.83.64,7.66,7.66,0,0,0,4.32-1,3.31,3.31,0,0,0,1.54-2.92v0a3.14,3.14,0,0,0-.7-2.13,4.1,4.1,0,0,0-1.8-1.16,19.13,19.13,0,0,0-2.85-.7l-.12,0h-.11l-.27-.06a27.49,27.49,0,0,1-4.19-1,6,6,0,0,1-2.76-2,6.75,6.75,0,0,1-1.15-4.2h0a7.46,7.46,0,0,1,1.07-4.07,6.66,6.66,0,0,1,3.12-2.57,13.5,13.5,0,0,1,7.63-.58,12.94,12.94,0,0,1,2.63.89,14.83,14.83,0,0,1,2.55,1.49l-2.05,2.86a11.85,11.85,0,0,0-2.92-1.62,8.54,8.54,0,0,0-2.92-.53,6.88,6.88,0,0,0-4.08,1,3.43,3.43,0,0,0-1.46,3v0a2.84,2.84,0,0,0,.75,2.08,4.46,4.46,0,0,0,1.87,1.12,29.06,29.06,0,0,0,3.12.75l.13,0,.13,0,.19,0,.2,0a22,22,0,0,1,3.89,1.13,6.11,6.11,0,0,1,2.61,2.11,6.69,6.69,0,0,1,1.05,4v0a7.07,7.07,0,0,1-1.11,4,6.91,6.91,0,0,1-3.22,2.55,13.34,13.34,0,0,1-5.09.87A17.12,17.12,0,0,1,427.33,1823Z"/><path class="cls-3" d="M445,1797.4h3.6v25.66H445Zm1.75,0h14.73v3.43H446.78Zm0,11.21h12.79V1812H446.78Zm0,11h14.73v3.42H446.78Z"/><path class="cls-3" d="M466.63,1797.4h3.27l12.54,19.84-.42.46v-20.3h3.57v25.65h-3.3l-12.52-19.54.43-.46v20h-3.57Z"/><path class="cls-3" d="M498.58,1797.4h3.07l9.46,25.66h-3.89l-7.11-20.7-7.11,20.7h-3.88Zm-5.1,16.61H507v3.42h-13.5Z"/><path class="cls-3" d="M536.21,1812.16v3.42H524.34v-3.42Z"/><path class="cls-3" d="M555.45,1822.15a8,8,0,0,1-3.13-3.36,10.87,10.87,0,0,1-1.11-5v-7a10.9,10.9,0,0,1,1.11-5,8,8,0,0,1,3.13-3.36,9,9,0,0,1,4.69-1.19,8.82,8.82,0,0,1,4.06.94,8.54,8.54,0,0,1,3.09,2.68,9.91,9.91,0,0,1,1.69,4h-3.69a5.71,5.71,0,0,0-1.12-2.14,5.49,5.49,0,0,0-1.84-1.46,5,5,0,0,0-6.78,2.38,7.23,7.23,0,0,0-.65,3.18v7a7.29,7.29,0,0,0,.65,3.18,5,5,0,0,0,1.83,2.13,5.05,5.05,0,0,0,2.76.75,5.21,5.21,0,0,0,2.19-.48,5.13,5.13,0,0,0,1.84-1.41,5.66,5.66,0,0,0,1.12-2.23H569a10,10,0,0,1-1.69,4,8.57,8.57,0,0,1-3.11,2.67,8.77,8.77,0,0,1-4,.95A9.1,9.1,0,0,1,555.45,1822.15Z"/><path class="cls-3" d="M590.94,1809.25v4.48a10.88,10.88,0,0,1-1.12,5,8.08,8.08,0,0,1-3.15,3.37,9.19,9.19,0,0,1-4.72,1.19,9.77,9.77,0,0,1-4.77-1.12A7.91,7.91,0,0,1,574,1819a9.7,9.7,0,0,1-1.13-4.75v-7.57a10.78,10.78,0,0,1,1.12-5,8,8,0,0,1,3.15-3.36,9.1,9.1,0,0,1,4.72-1.19,8.89,8.89,0,0,1,4.07.94,8.6,8.6,0,0,1,3.11,2.68,9.78,9.78,0,0,1,1.69,4h-3.9a5.56,5.56,0,0,0-1.07-2.21,5.2,5.2,0,0,0-1.79-1.42,4.89,4.89,0,0,0-2.11-.48,5.07,5.07,0,0,0-2.79.76,4.88,4.88,0,0,0-1.85,2.13,7.23,7.23,0,0,0-.66,3.18v7.57a6.13,6.13,0,0,0,.67,2.91,4.77,4.77,0,0,0,1.9,1.93,5.68,5.68,0,0,0,2.83.69,5.32,5.32,0,0,0,2.79-.72,4.67,4.67,0,0,0,1.85-2.07,7.33,7.33,0,0,0,.66-3.23v-1.11H582v-3.44Z"/><path class="cls-3" d="M596.41,1797.4H600v25.66h-3.6Zm2.43,22.24h5.81a6.17,6.17,0,0,0,4.4-1.47,5.43,5.43,0,0,0,1.57-4.16v-7.55a5.41,5.41,0,0,0-1.57-4.16,6.17,6.17,0,0,0-4.4-1.47h-5.81v-3.43h5.7a11.84,11.84,0,0,1,5.28,1.08,7.53,7.53,0,0,1,3.34,3.14,10.18,10.18,0,0,1,1.14,5v7.27a10.18,10.18,0,0,1-1.14,5,7.55,7.55,0,0,1-3.35,3.14,11.84,11.84,0,0,1-5.28,1.07h-5.69Z"/><path class="cls-3" d="M623.62,1823a13.57,13.57,0,0,1-3.09-1.06,13.09,13.09,0,0,1-2.7-1.77l2.25-2.75a9.9,9.9,0,0,0,3.23,1.9,11,11,0,0,0,3.83.64,7.66,7.66,0,0,0,4.32-1A3.33,3.33,0,0,0,633,1816v0a3.14,3.14,0,0,0-.7-2.13,4.22,4.22,0,0,0-1.8-1.16,19.13,19.13,0,0,0-2.85-.7l-.12,0h-.11l-.27-.06a27.49,27.49,0,0,1-4.19-1,5.94,5.94,0,0,1-2.76-2,6.69,6.69,0,0,1-1.15-4.2h0a7.46,7.46,0,0,1,1.07-4.07,6.66,6.66,0,0,1,3.12-2.57,13.5,13.5,0,0,1,7.63-.58,13.15,13.15,0,0,1,2.63.89,15.22,15.22,0,0,1,2.55,1.49l-2,2.86a12,12,0,0,0-2.92-1.62,8.54,8.54,0,0,0-2.92-.53,6.91,6.91,0,0,0-4.09,1,3.44,3.44,0,0,0-1.45,3v0a2.84,2.84,0,0,0,.75,2.08,4.46,4.46,0,0,0,1.87,1.12,28.78,28.78,0,0,0,3.11.75l.14,0,.13,0,.19,0,.2,0a22,22,0,0,1,3.89,1.13,6.11,6.11,0,0,1,2.61,2.11,6.69,6.69,0,0,1,1,4v0a7.07,7.07,0,0,1-1.11,4,7,7,0,0,1-3.22,2.55,13.38,13.38,0,0,1-5.09.87A17.29,17.29,0,0,1,623.62,1823Z"/><path class="cls-3" d="M645.17,1823a13.57,13.57,0,0,1-3.09-1.06,13.09,13.09,0,0,1-2.7-1.77l2.25-2.75a9.9,9.9,0,0,0,3.23,1.9,11,11,0,0,0,3.83.64,7.69,7.69,0,0,0,4.32-1,3.32,3.32,0,0,0,1.53-2.92v0a3.14,3.14,0,0,0-.69-2.13,4.22,4.22,0,0,0-1.8-1.16,19.13,19.13,0,0,0-2.85-.7l-.12,0H649l-.27-.06a27.49,27.49,0,0,1-4.19-1,5.94,5.94,0,0,1-2.76-2,6.69,6.69,0,0,1-1.15-4.2h0a7.46,7.46,0,0,1,1.07-4.07,6.66,6.66,0,0,1,3.12-2.57,13.5,13.5,0,0,1,7.63-.58,13.15,13.15,0,0,1,2.63.89,15.22,15.22,0,0,1,2.55,1.49l-2.05,2.86a12,12,0,0,0-2.92-1.62,8.54,8.54,0,0,0-2.92-.53,6.91,6.91,0,0,0-4.09,1,3.44,3.44,0,0,0-1.45,3v0a2.84,2.84,0,0,0,.75,2.08,4.46,4.46,0,0,0,1.87,1.12,28.78,28.78,0,0,0,3.11.75l.14,0,.13,0,.19,0,.2,0a22,22,0,0,1,3.89,1.13,6.11,6.11,0,0,1,2.61,2.11,6.69,6.69,0,0,1,1.05,4v0a7.07,7.07,0,0,1-1.11,4,7,7,0,0,1-3.22,2.55,13.38,13.38,0,0,1-5.09.87A17.29,17.29,0,0,1,645.17,1823Z"/><path class="cls-2" d="M531.31,1684.69l3.22-5.58H472.26v10.47h40.53a3.07,3.07,0,0,1,1.63,2.93l-24.76,42.89h0l3.76,4.14,3.93,4.31,1.58-2.8,1.52-2.67h0l31-53.62Z"/><path class="cls-2" d="M548.69,1684.69l-3.22-5.58h62.27v10.47H567.21a3.07,3.07,0,0,0-1.63,2.93l24.76,42.89h0l-3.76,4.14-3.93,4.31-1.58-2.8-1.52-2.67h0l-31-53.62Z"/><path class="cls-2" d="M574.54,1748.26,543.77,1695l-.13.08-3.59-6.65-3.65,6.73-30.67,53.14,9.23,5.33,23.34-40.43a4.66,4.66,0,0,1,1.75-.41,4.48,4.48,0,0,1,2,.54l23.26,40.3Z"/><text class="cls-4" transform="translate(476.64 1674.11) scale(1.47 1)">SENA</text><circle class="cls-2" cx="540" cy="1632.25" r="14.73"/></svg>