<svg xmlns="http://www.w3.org/2000/svg" viewBox="0 0 616 616"><defs><style>.cls-1{fill:#ff7f00;}.cls-2{fill:#fff;}</style></defs><g id="Capa_2" data-name="Capa 2"><g id="Capa_1-2" data-name="Capa 1"><circle class="cls-1" cx="308" cy="308" r="308"/><rect class="cls-2" x="389.3" y="376.8" width="26.32" height="26.32"/><path class="cls-2" d="M172.47,376.8c-68.62-1-68.62,116.22,0,115.18C241.1,493,241.1,375.76,172.47,376.8Zm-.83,84.58c-23.59,0-23.59-53.46,0-53.42S195.22,461.41,171.64,461.38Z"/><path class="cls-2" d="M258.73,423.35c0-8-5.36-15.39-15.39-15.39-14.71.2-14.77,30.61,1,29.58v52.77h25.84V438.06c7-6.32,8.69-2.68,15.24-.63,4,0,7.83-12.94,7.83-23.88S266.31,415.56,258.73,423.35Z"/><rect class="cls-2" x="389.3" y="414.49" width="26.6" height="77.49"/><path class="cls-2" d="M468.4,376.8v88.88H430.34V492H495V376.8Z"/><path class="cls-2" d="M328.83,416.69V375.46H302V476.64c.58,15.44,14.79,16.11,26.8,15.34,42.23,0,46-29,46-52.88C374.86,403.12,328.83,404.76,328.83,416.69ZM346.9,456a16.12,16.12,0,0,1-16.12,16.12V434.67C342.25,434.54,348.38,445.53,346.9,456Z"/><path class="cls-2" d="M316.25,227.43c.51,30.27,45.55,30.28,46.07,0C361.8,197.16,316.77,197.15,316.25,227.43Zm8.05,4.94a3.71,3.71,0,0,1,0-.58c0,.2,0,.39,0,.58.52,5.08,10.49,8.72,17.9,7.57,6.8-.75,11.94-4.1,12.09-8.15C354.64,247.52,324.71,247.71,324.3,232.37Z"/><path class="cls-2" d="M252.81,227.43c.52,30.27,45.56,30.28,46.07,0C298.37,197.16,253.33,197.15,252.81,227.43Zm8.06,4.94a5.49,5.49,0,0,1,0-.58c0,.2,0,.39,0,.58.52,5.08,10.48,8.72,17.89,7.57,6.8-.75,11.95-4.1,12.09-8.15C291.21,247.52,261.27,247.71,260.87,232.37Z"/><path class="cls-2" d="M254.75,309.45a63.44,63.44,0,0,1-4,22.47,95.53,95.53,0,0,1-38.41-76.14C235.83,256.69,254.75,280.42,254.75,309.45Z"/><path class="cls-2" d="M361.25,309.45a63.44,63.44,0,0,0,4,22.47,95.53,95.53,0,0,0,38.41-76.14C380.17,256.69,361.25,280.42,361.25,309.45Z"/><path class="cls-2" d="M402.34,245.42c-.09-39.11-26.27-72.37-62.85-84.82a46.24,46.24,0,0,0,5.38-23.86c-1,.36-2.08.78-3.1,1.23a42.61,42.61,0,0,0,1.58-14.15C329.63,128.58,317.48,141,312,155.45a90.86,90.86,0,0,0-9.19,0c-5.56-14.21-17.56-26.34-31.09-31a42.61,42.61,0,0,0,1.58,14.15c-1-.45-2.06-.87-3.1-1.23a46.11,46.11,0,0,0,5.13,23.35c-36.43,12.53-62.49,45.72-62.57,84.73,29.84,4.19,51.2,40.7,44.78,73.93,25.66,2.15,44.9,23,50,48.22,5.09-25.17,24.32-46.06,50-48.22a73.45,73.45,0,0,1-1-12.16C356.54,275.77,376.44,249.77,402.34,245.42Zm-88.88,5.15-1.29,3.94-4.45,13.63-4.45-13.63-1.37-4.21C283.67,270.59,242,263,241.42,227.43c.68-40.05,53.48-44.64,66.15-13.81,12.67-30.84,65.46-26.24,66.14,13.81C373.11,262.82,331.8,270.53,313.46,250.57Z"/></g></g></svg>