<svg xmlns="http://www.w3.org/2000/svg" viewBox="0 0 641.99 481.42"><defs><style>.cls-1{fill:#5f5f60;}.cls-1,.cls-3,.cls-4{stroke:#000;}.cls-1,.cls-2,.cls-3,.cls-4,.cls-5{stroke-miterlimit:10;}.cls-2{fill:#82cdd1;}.cls-2,.cls-5{stroke:#1d1d1b;}.cls-3{fill:#969696;}.cls-4{fill:#cecece;}.cls-5{fill:#d8d8d8;}.cls-6{fill:#fff;}.cls-7{fill:#39bdc9;}.cls-8{fill:#cdd3ce;}.cls-9{fill:#319ea3;}.cls-10{fill:#d32626;}.cls-11{fill:#ff9d00;}.cls-12{fill:#4fbc08;}.cls-13{opacity:0.25;}</style></defs><g id="Capa_2" data-name="Capa 2"><g id="Capa_1-2" data-name="Capa 1"><rect class="cls-1" x="75.53" y="0.5" width="490.9" height="315.5" rx="12.56"/><rect class="cls-2" x="106.59" y="25.24" width="428.78" height="266.02" rx="2.35"/><path class="cls-3" d="M620.74,462.28H21.22c-14.85,0-23.81-15.62-15.74-27.46L81,324.13A19,19,0,0,1,96.69,316H547.56a19,19,0,0,1,15.88,8.33L636.62,435C644.45,446.88,635.48,462.28,620.74,462.28Z"/><path class="cls-4" d="M639.2,442.65c-1.47,11.41-8.68,21.06-18.46,21.06H21.22c-9.79,0-17-9.65-18.46-21-7.44,15.33,4.62,38.25,19.5,38.25H619.71C634.56,480.92,646.71,458,639.2,442.65Z"/><path class="cls-5" d="M165.12,387.7H70.07a2.25,2.25,0,0,1-2.2-3.24l13.27-24.2a2.5,2.5,0,0,1,2.2-1.24h92.4A2.27,2.27,0,0,1,178,362.1l-10.61,24.19A2.47,2.47,0,0,1,165.12,387.7Z"/><path class="cls-5" d="M478.81,387.7h95.05a2.26,2.26,0,0,0,2.21-3.24l-13.28-24.2a2.49,2.49,0,0,0-2.2-1.24H468.2a2.28,2.28,0,0,0-2.29,3.08l10.62,24.19A2.45,2.45,0,0,0,478.81,387.7Z"/><path class="cls-5" d="M149.16,356.15H89.66a1.79,1.79,0,0,1-1.38-2.59l8.31-19.36a1.52,1.52,0,0,1,1.38-1H155.8a1.78,1.78,0,0,1,1.43,2.46L150.59,355A1.56,1.56,0,0,1,149.16,356.15Z"/><path class="cls-5" d="M215.24,356.15h-59.5a1.8,1.8,0,0,1-1.38-2.59l8.31-19.36a1.54,1.54,0,0,1,1.38-1h57.84a1.78,1.78,0,0,1,1.43,2.46L216.67,355A1.55,1.55,0,0,1,215.24,356.15Z"/><path class="cls-5" d="M237.27,384.84h-59.5a1.8,1.8,0,0,1-1.38-2.6l8.31-19.36a1.52,1.52,0,0,1,1.38-1h57.83a1.79,1.79,0,0,1,1.44,2.46l-6.65,19.36A1.57,1.57,0,0,1,237.27,384.84Z"/><path class="cls-5" d="M237.27,387.7h-59.5c-1.15,0-1.89-1.75-1.38-3.24l8.31-24.2a1.59,1.59,0,0,1,1.38-1.24h57.83c1.09,0,1.84,1.61,1.44,3.08l-6.65,24.19C238.46,387.15,237.9,387.7,237.27,387.7Z"/><path class="cls-5" d="M116.2,425H45.88c-1.35,0-2.23-2.11-1.63-3.9l9.82-29a1.91,1.91,0,0,1,1.63-1.49h68.35c1.29,0,2.17,1.93,1.7,3.69l-7.86,29C117.61,424.32,116.94,425,116.2,425Z"/><path class="cls-5" d="M194.87,425H124.55c-1.35,0-2.23-2.11-1.62-3.9l9.81-29a1.91,1.91,0,0,1,1.63-1.49h68.36c1.28,0,2.16,1.93,1.69,3.69l-7.86,29C196.28,424.32,195.61,425,194.87,425Z"/><path class="cls-5" d="M525.76,425h70.32c1.35,0,2.23-2.11,1.63-3.9l-9.82-29a1.91,1.91,0,0,0-1.63-1.49H517.91c-1.29,0-2.17,1.93-1.69,3.69l7.85,29C524.35,424.32,525,425,525.76,425Z"/><path class="cls-5" d="M447.09,425h70.32c1.35,0,2.23-2.11,1.63-3.9l-9.82-29a1.91,1.91,0,0,0-1.63-1.49H439.24c-1.29,0-2.17,1.93-1.69,3.69l7.85,29C445.68,424.32,446.35,425,447.09,425Z"/><path class="cls-5" d="M315.94,387.7H250.15c-1.15,0-1.89-1.75-1.38-3.24l2-24.2a1.6,1.6,0,0,1,1.38-1.24h64.13c1.09,0,1.84,1.61,1.43,3.08l-.35,24.19C317.14,387.15,316.57,387.7,315.94,387.7Z"/><path class="cls-5" d="M323.72,387.7h65.8c1.14,0,1.89-1.75,1.37-3.24l-2-24.2A1.59,1.59,0,0,0,387.5,359H323.37c-1.09,0-1.83,1.61-1.43,3.08l.35,24.19C322.53,387.15,323.09,387.7,323.72,387.7Z"/><path class="cls-5" d="M401.55,387.7h59.5c1.14,0,1.89-1.75,1.37-3.24l-8.31-24.2a1.59,1.59,0,0,0-1.37-1.24H394.9c-1.09,0-1.84,1.61-1.43,3.08l6.65,24.19C400.35,387.15,400.92,387.7,401.55,387.7Z"/><path class="cls-5" d="M281.32,356.15H221.83a1.79,1.79,0,0,1-1.38-2.59l8.31-19.36a1.52,1.52,0,0,1,1.37-1H288a1.78,1.78,0,0,1,1.43,2.46L282.75,355A1.55,1.55,0,0,1,281.32,356.15Z"/><path class="cls-5" d="M492.8,356.15h59.5a1.79,1.79,0,0,0,1.38-2.59l-8.31-19.36a1.52,1.52,0,0,0-1.38-1H486.16a1.78,1.78,0,0,0-1.43,2.46L491.37,355A1.56,1.56,0,0,0,492.8,356.15Z"/><path class="cls-5" d="M426.72,356.15h59.5a1.79,1.79,0,0,0,1.38-2.59l-8.31-19.36a1.52,1.52,0,0,0-1.38-1H420.07a1.78,1.78,0,0,0-1.43,2.46L425.29,355A1.55,1.55,0,0,0,426.72,356.15Z"/><path class="cls-5" d="M360.64,356.15h59.5a1.79,1.79,0,0,0,1.37-2.59l-8.3-19.36a1.54,1.54,0,0,0-1.38-1H354a1.78,1.78,0,0,0-1.43,2.46L359.21,355A1.55,1.55,0,0,0,360.64,356.15Z"/><rect class="cls-5" x="292.66" y="333.21" width="56.64" height="22.95" rx="1.12"/><rect class="cls-5" x="207.7" y="390.57" width="226.57" height="34.42" rx="1.12"/><rect class="cls-3" x="33.05" y="471.82" width="91.26" height="2.87"/><rect class="cls-3" x="140.04" y="471.82" width="91.26" height="2.87"/><rect class="cls-6" x="154.2" y="74.63" width="327.27" height="172.09"/><rect class="cls-7" x="167.81" y="94.7" width="144.75" height="47.32"/><rect class="cls-8" x="323.1" y="94.7" width="144.75" height="6.88"/><rect class="cls-8" x="323.1" y="113.27" width="144.75" height="6.88"/><rect class="cls-8" x="323.1" y="131.83" width="144.75" height="6.88"/><rect class="cls-8" x="323.1" y="150.39" width="144.75" height="6.88"/><rect class="cls-8" x="323.1" y="168.95" width="144.75" height="6.88"/><rect class="cls-8" x="323.1" y="187.52" width="144.75" height="6.88"/><rect class="cls-8" x="323.1" y="206.08" width="144.75" height="6.88"/><rect class="cls-8" x="323.1" y="224.64" width="144.75" height="6.88"/><rect class="cls-8" x="167.81" y="150.39" width="144.75" height="6.88"/><rect class="cls-8" x="167.81" y="168.95" width="144.75" height="6.88"/><rect class="cls-8" x="167.81" y="187.52" width="144.75" height="6.88"/><rect class="cls-8" x="167.81" y="206.08" width="144.75" height="6.88"/><rect class="cls-8" x="167.81" y="224.64" width="144.75" height="6.88"/><rect class="cls-9" x="154.2" y="60.69" width="327.27" height="15.37"/><ellipse class="cls-10" cx="454.61" cy="68.37" rx="2.97" ry="2.71"/><ellipse class="cls-11" cx="462.89" cy="68.37" rx="2.97" ry="2.71"/><ellipse class="cls-12" cx="471.16" cy="68.37" rx="2.97" ry="2.71"/><path class="cls-13" d="M209.68,316H526.07c21.2,0,38.38-15.66,38.38-35V120Z"/><path class="cls-13" d="M75.53,194.18V32.93C75.53,21.35,89.57.5,110.76.5H290.54Z"/></g></g></svg>