<svg xmlns="http://www.w3.org/2000/svg" viewBox="0 0 256.34 310.45"><defs><style>.cls-1{fill:#a54e00;}.cls-1,.cls-2,.cls-3{stroke:#000;stroke-miterlimit:10;}.cls-2{fill:#fff;}.cls-3{fill:#7f3900;}.cls-4{opacity:0.15;}</style></defs><g id="Capa_2" data-name="Capa 2"><g id="Capa_1-2" data-name="Capa 1"><polygon class="cls-1" points="29.6 306.67 0.55 18.41 202.76 0.54 233.13 282.77 29.6 306.67"/><polygon class="cls-2" points="34.39 302.48 5.87 19.48 208.09 1.61 236.61 284.61 34.39 302.48"/><polygon class="cls-2" points="38.92 303.04 10.5 21.13 212.72 3.26 241.13 285.17 38.92 303.04"/><polygon class="cls-2" points="43.36 302.82 15.14 22.78 217.15 4.93 245.37 284.97 43.36 302.82"/><polygon class="cls-1" points="71.63 309.88 42.65 22.37 226.55 6.12 255.79 283.76 71.63 309.88"/><polygon class="cls-3" points="29.93 306.65 0.97 18.77 44.16 22.23 73.14 309.68 29.93 306.65"/><polygon class="cls-2" points="178.27 81.57 117.58 86.93 119.3 103.99 179.99 98.63 178.27 81.57"/><polygon class="cls-2" points="180.22 100.98 119.53 106.34 120.17 112.64 180.86 107.28 180.22 100.98"/><polygon class="cls-2" points="61.96 296.95 35.84 294.99 35.48 301.31 61.59 303.27 61.96 296.95"/><path class="cls-4" d="M58.87,177.17l-13.15-138c-.58-6-.33-6.37-1.36-17.3l110.82-10.2Z"/><path class="cls-4" d="M239.13,129.68,253.69,267c.83,6,.6,6.35,2.1,17.23L145.51,299.13Z"/></g></g></svg>