<svg xmlns="http://www.w3.org/2000/svg" viewBox="0 0 121.06 121"><defs><style>.cls-1{fill:#fff;}.cls-2{fill:#ff7f00;}</style></defs><g id="Capa_2" data-name="Capa 2"><g id="Capa_1-2" data-name="Capa 1"><ellipse class="cls-1" cx="60.53" cy="60.5" rx="60.53" ry="60.5"/><path class="cls-2" d="M63.33,52.93c.21,12,18.09,12,18.29,0C81.42,40.92,63.54,40.92,63.33,52.93Zm3.2,2a1.69,1.69,0,0,1,0-.23c0,.08,0,.15,0,.23.21,2,4.16,3.46,7.1,3,2.7-.3,4.75-1.63,4.8-3.24C78.58,60.9,66.69,61,66.53,54.89Z"/><path class="cls-2" d="M38.15,52.93c.2,12,18.08,12,18.29,0C56.24,40.92,38.36,40.92,38.15,52.93Zm3.2,2a1.69,1.69,0,0,1,0-.23c0,.08,0,.15,0,.23.21,2,4.16,3.46,7.1,3,2.7-.3,4.74-1.63,4.8-3.24C53.39,60.9,41.51,61,41.35,54.89Z"/><path class="cls-2" d="M38.92,85.48a25.1,25.1,0,0,1-1.6,8.91A37.87,37.87,0,0,1,22.07,64.18C31.41,64.54,38.92,74,38.92,85.48Z"/><path class="cls-2" d="M81.2,85.48a25.1,25.1,0,0,0,1.6,8.91A37.93,37.93,0,0,0,98.05,64.18C88.71,64.54,81.2,74,81.2,85.48Z"/><path class="cls-2" d="M97.51,60.07c0-15.52-10.43-28.72-25-33.66A18.45,18.45,0,0,0,74.7,17a13.06,13.06,0,0,0-1.23.48,17,17,0,0,0,.62-5.61A21.58,21.58,0,0,0,61.66,24.37c-1.21-.06-2.44-.06-3.65,0A21.52,21.52,0,0,0,45.67,12.06a16.73,16.73,0,0,0,.63,5.61c-.41-.18-.82-.34-1.23-.49a18.31,18.31,0,0,0,2,9.27c-14.46,5-24.8,18.14-24.84,33.62C34.11,61.73,42.59,76.22,40,89.4c10.19.86,17.83,9.15,19.85,19.14,2-10,9.65-18.28,19.84-19.14a29.3,29.3,0,0,1-.4-4.82C79.33,72.11,87.23,61.8,97.51,60.07Zm-35.28,2-.51,1.57L60,69.08l-1.77-5.4L57.64,62c-7.24,8.05-23.77,5-24-9.08C33.9,37,54.86,35.22,59.89,47.45c5-12.24,26-10.41,26.26,5.48C85.91,67,69.51,70,62.23,62.11Z"/></g></g></svg>