<svg xmlns="http://www.w3.org/2000/svg" viewBox="0 0 524.11 524.11"><defs><style>.cls-1{fill:#ff7f00;}.cls-2{fill:#fff;}</style></defs><g id="Capa_2" data-name="Capa 2"><g id="Capa_1-2" data-name="Capa 1"><circle class="cls-1" cx="262.05" cy="262.05" r="262.05"/><rect class="cls-2" x="331.23" y="320.59" width="22.4" height="22.4"/><path class="cls-2" d="M146.74,320.59c-58.39-.88-58.39,98.89,0,98C205.13,419.47,205.13,319.71,146.74,320.59Zm-.71,72c-20.07,0-20.06-45.48,0-45.45S166.1,392.58,146,392.55Z"/><path class="cls-2" d="M220.13,360.2c0-6.79-4.56-13.1-13.09-13.1-12.51.17-12.57,26,.87,25.17v44.9h22V372.71c6-5.38,7.4-2.27,13-.53,3.41,0,6.66-11,6.66-20.32S226.58,353.57,220.13,360.2Z"/><rect class="cls-2" x="331.23" y="352.66" width="22.63" height="65.93"/><path class="cls-2" d="M398.52,320.59v75.62H366.15v22.38h55v-98Z"/><path class="cls-2" d="M279.78,354.53V319.45H257v86.09c.49,13.13,12.58,13.7,22.8,13,35.93,0,39.16-24.68,39.16-45C318.94,343,279.78,344.38,279.78,354.53ZM295.15,388a13.72,13.72,0,0,1-13.72,13.72V369.83C291.2,369.72,296.41,379.07,295.15,388Z"/><path class="cls-2" d="M269.07,193.5c.44,25.76,38.76,25.77,39.2,0C307.83,167.75,269.51,167.74,269.07,193.5Zm6.85,4.21a4.17,4.17,0,0,1,0-.5c0,.17,0,.33,0,.5.45,4.32,8.93,7.41,15.23,6.44,5.79-.64,10.16-3.5,10.29-6.94C301.74,210.59,276.27,210.76,275.92,197.71Z"/><path class="cls-2" d="M215.1,193.5c.44,25.76,38.76,25.77,39.2,0C253.86,167.75,215.54,167.74,215.1,193.5Zm6.85,4.21c0-.17,0-.33,0-.5,0,.17,0,.33,0,.5.45,4.32,8.93,7.41,15.23,6.44,5.78-.64,10.16-3.5,10.29-6.94C247.77,210.59,222.3,210.76,222,197.71Z"/><path class="cls-2" d="M216.75,263.29a54.12,54.12,0,0,1-3.43,19.12,81.28,81.28,0,0,1-32.68-64.79C200.65,218.4,216.75,238.59,216.75,263.29Z"/><path class="cls-2" d="M307.36,263.29a54.12,54.12,0,0,0,3.43,19.12,81.28,81.28,0,0,0,32.68-64.79C323.46,218.4,307.36,238.59,307.36,263.29Z"/><path class="cls-2" d="M342.32,208.81c-.08-33.28-22.35-61.57-53.48-72.16a39.26,39.26,0,0,0,4.58-20.31c-.88.31-1.76.66-2.63,1a36.09,36.09,0,0,0,1.34-12c-11.67,4.05-22,14.6-26.64,26.91-2.59-.13-5.24-.12-7.82,0-4.73-12.09-14.94-22.41-26.45-26.41a36.09,36.09,0,0,0,1.34,12q-1.31-.59-2.64-1.05a39.31,39.31,0,0,0,4.37,19.87c-31,10.66-53.16,38.9-53.24,72.09,25.39,3.57,43.57,34.63,38.11,62.9,21.83,1.83,38.2,19.62,42.53,41,4.33-21.42,20.69-39.19,42.52-41a62.55,62.55,0,0,1-.86-10.34C303.35,234.64,320.28,212.51,342.32,208.81Zm-75.62,4.38-1.09,3.35-3.79,11.6L258,216.54,256.86,213c-15.5,17.26-50.94,10.77-51.45-19.47.58-34.07,45.5-38,56.28-11.74,10.78-26.24,55.7-22.33,56.27,11.74C317.45,223.62,282.31,230.18,266.7,213.19Z"/></g></g></svg>