<svg xmlns="http://www.w3.org/2000/svg" viewBox="0 0 288.06 89.86"><defs><style>.cls-1{fill:#fff;}</style></defs><g id="Capa_2" data-name="Capa 2"><g id="Capa_1-2" data-name="Capa 1"><rect class="cls-1" x="206.65" y="1.03" width="20.27" height="20.26"/><path class="cls-1" d="M39.64,1c-52.85-.8-52.85,89.48,0,88.67C92.5,90.5,92.5.23,39.64,1ZM39,66.14C20.83,66.17,20.84,25,39,25S57.17,66.17,39,66.14Z"/><path class="cls-1" d="M106.08,36.87C106.08,30.73,102,25,94.23,25c-11.33.16-11.38,23.57.79,22.77V88.42h19.9V48.19c5.43-4.86,6.7-2.06,11.74-.48,3.09,0,6-10,6-18.38S111.92,30.87,106.08,36.87Z"/><rect class="cls-1" x="206.65" y="30.05" width="20.49" height="59.66"/><path class="cls-1" d="M267.57,1V69.46H238.26V89.7h49.8V1Z"/><path class="cls-1" d="M160.07,31.74V0H139.44V77.9c.44,11.88,11.38,12.4,20.63,11.8,32.53,0,35.46-22.32,35.46-40.7C195.53,21.3,160.07,22.56,160.07,31.74ZM174,62A12.42,12.42,0,0,1,161.57,74.4V45.58C170.41,45.49,175.13,54,174,62Z"/></g></g></svg>