<svg xmlns="http://www.w3.org/2000/svg" viewBox="0 0 664.86 387.62"><defs><style>.cls-1{fill:#dfe7e8;}.cls-1,.cls-2,.cls-4,.cls-5,.cls-6{stroke:#1d1d1b;stroke-miterlimit:10;stroke-width:7px;}.cls-2{fill:#848a90;}.cls-3{opacity:0.25;}.cls-4{fill:#abb4bb;}.cls-5{fill:#31b9d1;}.cls-6{fill:none;}</style></defs><g id="Capa_2" data-name="Capa 2"><g id="Capa_1-2" data-name="Capa 1"><rect class="cls-1" x="3.5" y="27.29" width="657.86" height="258.7" rx="25.48"/><rect class="cls-2" x="51.25" y="287.47" width="562.35" height="50.55"/><path class="cls-3" d="M658.22,85.3V272.08c0,10-20.08,10.27-68.39,10.27H275.07Z"/><circle class="cls-4" cx="485.57" cy="156.64" r="153.14"/><circle class="cls-5" cx="485.57" cy="156.64" r="105.56"/><path class="cls-6" d="M459.8,99.71a61,61,0,0,0-35,32.09"/><rect class="cls-2" x="51.78" y="179.86" width="124.89" height="44.6"/><rect class="cls-2" x="72.59" y="339.51" width="38.66" height="44.6"/><rect class="cls-2" x="552.47" y="339.51" width="38.66" height="44.6"/><line class="cls-2" x1="45.83" y1="100.88" x2="176.67" y2="100.88"/><line class="cls-2" x1="45.83" y1="130.62" x2="99.36" y2="130.62"/><path class="cls-3" d="M3.5,229.14V42.36c0-10,11.78-10.26,40.11-10.26h184.6Z"/></g></g></svg>